<mxfile host="app.diagrams.net" agent="Mozilla/5.0 (Macintosh; Intel Mac OS X 10_15_7) AppleWebKit/537.36 (KHTML, like Gecko) Chrome/131.0.0.0 Safari/537.36" version="25.0.1">
  <diagram name="Page-1" id="vOn0eZX12a2TVrbp6BFz">
    <mxGraphModel dx="2241" dy="1750" grid="0" gridSize="10" guides="0" tooltips="1" connect="1" arrows="1" fold="1" page="1" pageScale="1" pageWidth="827" pageHeight="1169" math="0" shadow="0">
      <root>
        <mxCell id="0" />
        <mxCell id="1" parent="0" />
        <mxCell id="obZEuTfXzIU9tXFM8pBn-8" value="" style="shape=image;verticalLabelPosition=bottom;labelBackgroundColor=default;verticalAlign=top;aspect=fixed;imageAspect=0;image=https://encrypted-tbn0.gstatic.com/images?q=tbn:ANd9GcQSa-xNV356dHPMalOnsrF2Csb6cUtxU1jailGNHfDDj50QLjiwU17qSJLl_df_DVeUalU&amp;usqp=CAU;" vertex="1" parent="1">
          <mxGeometry x="87" y="581.5" width="63" height="63" as="geometry" />
        </mxCell>
        <mxCell id="obZEuTfXzIU9tXFM8pBn-11" value="1" style="text;align=center;verticalAlign=middle;rounded=0;labelBorderColor=#FF9999;labelBackgroundColor=#F8CECC;glass=0;strokeWidth=4;textShadow=0;fontSize=16;fontStyle=1;whiteSpace=wrap;html=1;fontColor=#333333;" vertex="1" parent="1">
          <mxGeometry x="19" y="555" width="60" height="30" as="geometry" />
        </mxCell>
        <mxCell id="obZEuTfXzIU9tXFM8pBn-14" value="Git Operation" style="text;html=1;align=center;verticalAlign=middle;whiteSpace=wrap;rounded=0;fontSize=9;fontStyle=1" vertex="1" parent="1">
          <mxGeometry x="40" y="638.5" width="146" height="30" as="geometry" />
        </mxCell>
        <mxCell id="obZEuTfXzIU9tXFM8pBn-16" value="" style="shape=image;verticalLabelPosition=bottom;labelBackgroundColor=default;verticalAlign=top;aspect=fixed;imageAspect=0;image=data:image/jpeg,/9j/4AAQSkZJRgABAQAAAQABAAD/2wCEAAkGBxIQEhASEQ8QFRAVFhARFxMVDQ8bEhMTFhUWFhcWFhcZHSghGBolGxcXITEhJSkrLi8uGCE0ODM4NygtLisBCgoKDg0OGxAQFy0mHyUtNTUtLSstLS01NTUtLS0tLS4yLS0tLS01Ky0tLS0tLzItLSstMC0tLS0vLS8vLSsvLf/AABEIAOEA4QMBEQACEQEDEQH/xAAbAAEAAgMBAQAAAAAAAAAAAAAABgcCBAUDAf/EAD4QAAIBAgIHBAcHAwMFAAAAAAABAgMRBAYFEiExQVFhIjJScRMzgZGhscEjQmJzstHwcsLhFYLSB1OSovH/xAAaAQEAAgMBAAAAAAAAAAAAAAAAAwUBBAYC/8QAMREBAAIBAgMGBQUAAgMAAAAAAAECAwQREiExIkFRcbHRM2GR4fAFMkKBoRMUI2LB/9oADAMBAAIRAxEAPwC8QAAAAAAAAAAAAAAAAAAAAfG7AQPMud3rOnhGrLY61k7vlC+y34uPDm7DBpP5X+itz6yf24/r7I5RzBXcu3WqP8XpJ3XxN6taRy4Y+jQtfJPPin6yk2jsz1qdlP7SPV9peUuPtuR5dDjvzrylLi1+SnK3OEp0dpqjXsoztPwS2S9nP2Fbl02TH1jl4rTDqseXpPPwl0TXbAAAAAAAAAAAAAAAAAAAAAAAAAAMalRRTlJpRSbbbSSS3tvgjMRvyhiZiI3lWmbs2PEXo0G44fc5bVKr+0OnHjyLPT6bg7Vuqq1Oq4+zXp6/ZFDbaYB36L7MfJfInjo156szI7Gjcx1qNk36SHKTesvKW/33NTLo8d+ccp+Xs3MOuyY+U84+fulWjdPUa9kpas/BKyb8nuZWZdLkx89t48YWmHWY8vKJ2nwl1DWbQAAAAAAAAAAAAAAAAAAAAAB5YrEQpQlOpJRhFXcm9iRmtZtO0MWtFY3lVuas0TxbcIXjh09keNRrdKf0j9d1tg08Y43nqp9RqZyztHRHbmw1S4C4Hfovsx8o/InjognqzuZYLgAOro3MFajZa2vDwzu/c96+XQ1cukx5Oe20/Jt4dZlx8t94+aVaNzHRrWTfo5+GTVm+ktz+DK3Lo8mPn1j5LTDrcWTlvtPzdg1G4AAAAAAAAAAAAAAAAAADW0jjqeHpyqVZqMFx4t8Elxb5HqlJvO1Xi960jitKqMzZjqY2XGNGL7FO/wD7T5y+C4cW7fDgrij5qbPqLZZ+Xg4lydAXAXAXAkFHux8o/InjognqzDAAAAAO7l3TsqMo06km6Lajtfq+TT5c1/HparSxes2rHP1b2k1dsdoraez6fZOylXoAAAAAAAAAAAAAAAA0dMaVpYSm6lWVluUV3py8MVxZJjx2yW2qjy5a468VlS5g07VxlTWnsgr6lNPswX1lzf8A8LfFhrjjaFNmzWyzvP0cslQgAAAAkFDux8o/Injo156szLAAAAADA6X+v1fE/ea3/Ux+Da/7uRY5QOiAAAAAAAAAAAAAAcvT+nKWDp69R3k7qFNNa0305Lm+HuRLiw2yTtCHNmrijeVSaZ0tVxdR1Kstu6MV3YR5RX14lxjx1x12qpcuW2S3FZokiMAAAAHwCQ0O7Hyj8ieOiCerMMAAAAAAYHp5W6cq64A5+K05hqUnCeIpRktjjrq68+XtJq4Mto3isobajFWdrWjduUK8akVKE4yi90oyTT8miK1ZrO0wlraLRvE7w9DDIAAAAAAABxMz5jp4KG20q0l2Kd9r/FLlH58CfBgtln5NfPqK4o+fgqTSOPqYipKrVk5TfuS4RiuCXIuKUrSOGqlve17cVp5tY9PIAAAAAACQ0O7Hyj8ieOjXnqzMsAAAAAAYGWFvHKuuQPNub+9Qwsuk6yfvjTf93u5lppdF/PJHlHuqNZrv4Y5859vf6IOWiqdHQumquEnrUpdl96D7k/NcH1X+CHNgplja31TYM98M71/uFnaB09Sxkbwdppdqm+9Hr1XVf4KTPp74Z59PFfafU0zR2evg6pA2AAAAAAI3m3NcMGtSFp4lrZHhBP70/ot7+JtafTTkneejU1OqjFG0dVUYvFTqzlUqTcpyd3Jva/2XTgW1axWNohT2tNp3mebyPTyAAAAAAA9cLh51Zxp04SnOWxRitr/ZdeB5taKxvL1Ws2naI5u+6Th2Jd6PYe3jHY/ijYrMTWJhrXja0xIenkAAAAAMsA8u5nTNEpynhqLtTi3CpNPbNrY4rlFbnz8t9Zo9JERGS/XuWut1k2mcdOnfPj9vzzhhZKwAAemHrypyjOEnGcXdSTs0ebVi0bTHJmtprO9Z2lYuWM5Rr2pYjVhW2JT3QqP+2XTc+HIqNTopp2qc49F3pdfGTs5OU+v3S0r1iAAAERzjnCOGvRoNSxHF7HGl585cl7Xye5ptLN+1bp6tLU6uMfZr19Puq6rVlOUpSk5Sk23Ju7bfFstYjaNoVEzMzvLC5lguAuAuAuAuAuB1dAaBrY2erSVorvVJX1IfvLovgtpFlzVxRvb6JcOG+Wdq/Va+X8v0cFC1ON5vvVJW15fsui+e0qMua2Wea6w4KYo7PXxQHSfrq/5lX9bOgw/Dr5R6OczfEt5z6tYkRAAAAAAYGWHNxdOUKlSM+/GU4y/qTafxI6TE1iY6JLxMWmJ67vK56eS4C4C4BhhLMs5ynQtTxDlOjuU99Smv7o/FfA0NToov2qcpWOl19sfZyc4/2Pf1WNhsRCpGM6clKEldSTumintWaztMc13W0Wjes8nqeXpBs550VPWoYWSdXbGdVbqfOMecuvDz3b+m0nF2r9PBX6rWcPYp18fzvVq3e7e1u7bb2tve2WapAAAAAAALgS7KuSp4nVq4jWp0NjUd1Sounhj13vhzNPPq4pyrzlu6fRzk7V+Ueqz8JhYUYRp04RjCKsopbF/nqVdrTad5W9axWNojk9jy9Kq0n66v+ZV/WzpsPw6+Uejlc3xLec+rWJEYAAAAAGBlhN83ZTWJvWo2WIttW6NVLg+Urbn7Hwao9JrJx9m37fRf6zRRl7dP3ev3VnVpuLcZJxlFtOLVmmt6aLqJiY3hRTExO0sTLAAAAAOpoHT9bByvTd4PvU23qS6/hl1XtuQZ9PTNHa6+LYwam+Gd69PB2c056lVpqnhlOmpR7c3smr74Qtu6y93M0cOi4Lb35+Dfza//AJK7Y+Xj7fdBUbzQfTAAAAAABnQoyqSjCEZSnJ2UYq7b6ITMRG8sxEzO0dVl5UyNGjq1cUozq7HGnvp0318cvguu8q8+sm3Zp0W2n0UV7V+c+CbGi3wABVOk39tX/Mq/rZ02H4dfKPRymb4lvOfVrXJEZcBcBcBcBcDA9MLiOTdgjua8rwxi14WhiEtkuE0vuz+j3r4G5pdXOKdp51aWr0cZo4o5W/OqrcVh50pyp1IOM4uzi96/ddS9raLRvWeTn7VtWeG0bS8jLAAAAAPj2jY3a9SnbduIprslrfd5nl7AAAAB0tBaErYyepRjsVtab7kF1fPotvzIsuauON7JcWG+Wdqray3lqjgY9ha1Vq0qsktaXReGPRe2+8qM2e2WefTwXWDT1xRy6+LtECcAAAKo0n66v+bV/Wzp8Pw6+UejlM3xLec+rWJEYAAAAAGJlhcRybsADiZmy7TxsNto1orsVLbvwy5x+XA2dNqbYZ+XfDV1Wlrnr4T3T+dyqNI4Gph6kqVWOrNe5rhKL4p8y+x5K5K8VZ5OeyY7Y7cNo5ta57RlwFwFwFwFwPKpS5Hia+CSt/F4MjSFwFwJXlTJlTF6tWrrU8PvTt9pVX4E90fxP2c1qajVVx9mvOW7p9JbJ2rco9VqYDBU6EI06UIwhHdFL4vm+r2lTe9rzvaea4pStI4axybB5egAAAAVPpP11f8ANq/rZ0+H4dfKPRymb4lvOfVrEiIAAAAADE9MLjOSdiAAOXp/QdLGU9SorSV3Col2oP6rmuPuZPg1FsNt4/uGvqNPTNXa39SqXTGiquEqOnVjZ74yXdnHnF/TgX+HNTLXiq53Nhvhtw2aJKiAAAAAAxnBMxNYl6i2zxhQlKUYRi5Sk7RjFNuT5JLeQ27POU1e1yhZGU8hRp6tbGJSqbHGjscIf18Jy6bl1KvUayZ7OPp4rbTaGI7WTr4J4V6xAAAAAAAVNpT11f8ANq/rZ1GH4dfKPRyeb4tvOfVrEiMAAAAADEywuQ5J2IAA0tL6VpYSnKrWnqxWxL70pcIxXFv+bD3jx2yW4ao8mWuOvFaVOZkzLVxtTXl2acb6lNPZFPi+cnz9xd6fDGGOXXvUWozWzzz6d0NCE7m5E7tKY2ZGXkABkDAAA98FjKlCcalKbjOO5r4priuh5vSt68No5PdMlqW4qztKzsr5wp4q1OraniOV+xU/ob4/he3zKTU6K2LtV519F9pddXL2bcrevl7JQaLfAAAAAAAVLpT19f8ANq/rkdRh+HXyj0clm+Lbzn1axKjAAAAAAxDC5TknZAHMzBpylgqXpKr2u6hBd+pLkl83wJcWG2W21UWbNXFXeymdP6cq42q6lV7FdQgm9SnHkuvN737krvFirirtVQ5s1stuKzmkiJ9jKxmJ2Jjds06l/MlrbdDauzI9PIAAAAAH24E4ytnlw1aWLblDcq21yj/X4l+LfzvvKvU6CJ7WLr4ey10v6jNexl6ePv7rEpVFJKUZKUWk000009zTW9FRMTE7SuomJjeGRhkAAAAFSaU9fX/NrfrkdTh+HXyj0clm+Lbzn1axIjAAAAAAxMsLmORdk4maMy0sBTvLtVZX1KSfak+b8MebJ8GC2WeXTxa+o1FcNd5690Ka0vpSriqkqtaetN7F4Yx4RiuC/j2l3jx1x14aqLJktktxWlpHt4AAH1OwGzTq38yWtt0Nq7Mz08AAAAAAAO7lrM9bBOy7dBu8qTe7m4P7r+D+Jq6jSUzRv0nxbem1l8E7da+HstTQ+l6OLh6SjO63OL2Tg+Ulwf8AEUWXDfFbhtDocOemavFSW+RJQAAAqPSnr6/5tb9cjqcPw6+Uejks3xbec+rWJEQAAAAAGJkWHm/NlPAx1VaeJkrxp32RXjnyj03v3tc1p9NOWd+51Gp1VcMbdZ8FO4/G1K9SVWrNzqSd238ElwS4IuqUikcNY5KO97XnitPNrnp4AAAABvaG0TWxdRU6EHKWxt7owXilLgvi+B4yZa444rSkx4rZZ4awk2Y8m1cJTjUjL0sEl6RqNnCXF28HXhxPGm11cs8M8p7vzxe9VoLYY4qzvHf8vsjFzeaBcBcBcBcBcBcDa0bpGrh5qpRm4zXukuUlxXQjyY65K8No5PeLLbHbipO0rSyvm6ljLQnaniPBfsz6029/lvXXeUep0dsPOOdfzq6DS66mbszyt4eySmk3gABUWlPX1/za365HU4fh18o9HI5vi2859WsSowAAAAAMQw4OlMbKvWq1Zt605yk78NuyPsVl7DUx1ilYrHc3cl5vebT3ta57eC4C4C4C4Elynk+tjmpu9PDX21Gts+app7/6ty62sauo1VcXLrP51ben0ls3PpH50W7onRVHC01SowUYra/FJ+KT3t9SmyZLZJ3tK6x4q468NYbjV9j3HhIrbOeS3T1q+Fjentc6SW2HOUFxj04cNm650eu4uxk690+6j1v6fw73xRy749vZBrloqX0AAAAAABSas07NbU09qa4oMp9lXPdtWljHdbo17buSqf8AL38WVOq/T9+1i+nt7LfSfqX8Mv19/dYUJqSTTTTSaaexp7mmVExtyldRO7ICodKP7ev+bW/XI6rD8OvlHo5HN8W3nPq1rkiIuAuAuAuAuBiZHvn7Ks8LUnXpxvhqknK6XqpSd3GX4W3sfW3K9TpNRF6xWesf6t9Zppx2m8dJ/wARA3WiAAPsU20km22kkldtvckuLMM9VjZQ/wCnt9WtjY8nHD39zq/8ffxRW6jW/wAcf19lpptB/LL9PdZMIpJJJJJJJJbEluSRWLV9AAAIDnTJetrYjCR7W2U6KXe5yprxc48eG3Y7bR67bsZJ8p91PrdBv/5MUc++PZXRcKUAAAAAAAAkGV82VcE1F3qYe+2m3tjzdN8H03PpvNPU6Ombn0t4+7d0utvg5da+HstbRWlKWKpqpRmpR3PxRfhkuDKHLivitw2h0GLNTLXipO6rdK+vr/m1v1yOmw/Dr5R6OVzfFt5z6y1iVGAAAAAB8DC56lNSTjJJxaaaaTTT2NNPejkYnbnDs5jflKpc8ZIeF1q+GTlht8obXKj16w671x2bS30uri/Zv19fuptXo/8Aj7dOnp9kIubyvbmitGVsVUVKhTcpv/xivFJ/dXU8ZMlcccVpSY8dsluGsLfylkylgUpytUxNttRrswvvVNPdyvvfTcU2o1VsvKOULvTaSuLnPOfH2Sg1W2AAAAABDM55NWI1q+HSVffKGxRq/tPrx48yy0eunH2L9PT7KzW6CMnbx/u9fuq+cXFtSTUk2mmmmmtjTT3Mu4nfnCgnlO0sTLAAAAAAADd0VpWrhaiqUZuMuK+7NeGS4r+Ijy4qZa8N4S4c18VuKkujWrupKVRpJzcqjS3JyetZe890rw1ivhCO9uK028Z3+rE9PIAAAAAHwyLqOPdoNARjGZCwFSTn6Bwb2tU6k4wf+1Oy9ljarrM1Y23altDhtO/D9Ha0VomhhYalClGEd7te8nzlJ7ZPzZBkyWyTvad0+PFTHG1Y2bp4SAAAAAAAAEWzjlGGMTq0rQxKW/7tRLcp9eUvpu3tJrJwzw2519GhrNDXNHFXlb181TYmhOnKUKkXGcXaUWtqZf1tFo3ieTnbVtSZraObzMvIAAAAAADs0u7HyXyMsMwAAAAAAfDLC6zj3agAAAAAAAAAAAAAI9mzK1PHRurQxEV2alt68M+cfiuHFPb0urtgnbrXwaer0dc8b9Ld0+6odIYKph6kqVWDjOO9P4NPinzOhx5K5K8VZ5ObyY7Y7cNo5ta57eC4C4C4C4C4Hapd2PkvkZeWYAAAAAAPgF2HHu1AAAAAAAAAAAAAAAONmXLtLHU9WfZqK+pUS7UH15x5r67TY02ptgtvHTvhranS0z12nr3Sp3TGiquEqOlWjaS2pruzj4oviv4zo8WamWvFWXM5sN8NuG8NEkRAAAAA7VLux8l8j0wzAAAAAD5cMN7/AEmr4GQf9jH4tj/q5PBb5yrrgAAAAAAAAAAAAAAABzdO6FpYym6dWPWM13oS5xf04k2DPfDbiqhz4KZq8NlN5g0HVwVT0dVXTu4VEuxUjzXJ81w8rN9Hp9RTNXir/cOY1Onvgvw2/qfFy7k7XLgLgLgdql3Y+S+RlhmAAAAAHYyzoOWLqK8X6CLTnLg7fcXNv4L2X1NXqowU/wDaenu3NHpJz36dmOs//Fp+jXhXuRzW8up2hkYZAAAAAAAAAAAAAAAAADT0royliqcqVaGtB++L4Si+DRJiy2xW4qzzR5cVcteG0clOZpy3VwM7SvKjJvUqpbH+GXKXTjw6dFptVXPXl174czq9JbBb5d0uGbTUAAHapd2PkvkZYZgAAG9ovQ9fEv7Km2uM3sprzl9FdkObUY8P75/rvT4NNlzfsj++76ppojJFKnaVeXpZeFXVNfWXt2dCoz/qd7cscbR/q5wfpWOvPJO8/wCff85JTSpxglGMVGK2JJJJLoluKyZmZ3mVrWsVjaI5MzDIAAAAAAAAAAAAAAAAAAAHhjsHTrwlTqwU6clZxf8ANj68D1S9qW4qztLxelb1mto3hT2b8p1MDLWjeeGb7M7bYt7oztx67n8DotJrK542nlb86Ob1mhtgneOdfzqjVzdaAB26T7MfJfIDO5lh0tE6CxGKt6Kn2P8AuS2U/fx9lzXzarFh/dPPwjr+ebZwaTLn/ZHLxnp+eSa6IyVRpWlWfpp8mrU1/t4+2/kU+f8AUsl+VOzH+/X2XWD9KxU55O1P+fT3SeEUkkkklsSS2JFdMzPOVnERHKH0wyAAAAAAAAAAAAAAAAAAAAAAAPOvRjUjKE4qUJJpxaTTT4NGa2ms7wxasWjaVVZsyJVoSdTCxlUoPbqK7qU+lt8o9d/Pm77Sa+uSOHJO0+rntZ+nWxzxY+ceHfCJ0sI2+12Ut99/lYs4jdVTaI5SleiMt4jE2cKerT8c7xjbpxl7FbqaufWYcXWd58IbeDQ5s3SNo8Z5JtojJuHo2lU+2qc5LsJ9Ibvfcp8/6jlycq9mPl1+q60/6Zix87dqfn0+nvukaVivWT6AAAAAAAAAAAAAAAAAAAAAAAAAAAABzMV66PsNinw5QW/fDpmunAAAAAAAAP/Z;" vertex="1" parent="1">
          <mxGeometry x="155" y="599.5" width="23" height="23" as="geometry" />
        </mxCell>
        <mxCell id="obZEuTfXzIU9tXFM8pBn-18" value="" style="shape=image;verticalLabelPosition=bottom;labelBackgroundColor=default;verticalAlign=top;aspect=fixed;imageAspect=0;image=data:image/png,iVBORw0KGgoAAAANSUhEUgAAAOEAAADhCAMAAAAJbSJIAAAAflBMVEX////eTDbdQSf439zcORrleWzcPiLwtq/0zcneSjTcNhXusKnlfXD21dLdRi7dRCvoj4TxvbjcOx7++vn88vHbNBDrnpbwubP77eviZ1ffUDv65uTnhXnoi4HgWkfjbF3kc2TzyMPgWEXqmI/hYlDaKQDspZ3tqaH32tfja1sHQ+r4AAAHqklEQVR4nO3d63bbKBAAYCHLapBtKZYS3xIndpK26fu/4LrdbDe2heYCg4CT+dXTU2O+IgGCEc4yf7FZ77c79TRd3Xj8Uo+xeK7yWiul66YsV93Y1XEe3byq1d/Qebkcu0aO46Fu1FnoYj92nZzGpNDqMsrp2LVyGH1ApfJ0iP3AhIgmYDJEMzAR4hAwCeIwMAEiBIyeCAMjJ2KAURNxwIiJWGC0RDwwUiIFGCWRBoyQSAVGR6QDIyNygFERecCIiFxgNMTNdy4wGuKsYgu/iMHEF/GLOHbtUfFF/CKOXXtUJEa86/m7pIiT7307ngkRT5Pt+6SJf54mUiZ+PC6lS/z7PJgq8dMDb5rEsyf6FIkXSxbpEa/WZFIj9iw6pUXsXVVLiWhYNkyHaFwXTYU4sPBrJGpdN01dkxdURyEOrmz3E++L/LBfvd4emiInIkcgAkv3vcTjw39/2nx7K+qhz49PBPcmeomf433bktrRMxGx+QISs2XARNTuEkzc7EhXqkcicvsMJnZPYRLR+4MI4i7EC5WwAYq4UGnzAC9E0g4vTJyVoRGJW9gw8SWwvBvyHj1IPNIaUZpIT0LQFVSmDmkCx8iyaF6hQlcNXIovIieNpATfU1sQL1NBIitPpgJfUuvoD45CRBZQ13DBtFFfjsjLdNJbuORn2nOUFJGZylUf4KKnDKF7IjdXTUzomshOxtNvcOFvAWQy8rMNdQmX3jALd0jkA5UqNlDpdwW3bGdEG6CC32hekkd810QroKrnUPk/2G3oiGgHxExqbvmN6IJoC1TND/A7RiVaA5Uu4OMTRiTaA093IqIKoxFdAJVqvwVLdANU6n4RKNEVUOkKcVzLCERnwN/EWYBEh8BTtAdw9uab6BZ46lGrW9DolegaeIoCvlI9EgWAKj8fNI59vY83ogTwUnjzvW8M8UQUAV4Jy2o0ogzwWqjHIgoBr4VK9052xIlSwB7hOEQxYJ9wDKIcsFeovN+LgsB+oW+iJNAg9EsUBZqEPomyQKPQTNR1k5+CviZuIAoDzUIT8b49vM7W65+326okbt70EqWBA0ID8f+/646HyjpZUxw4JDSMi5/jYUqr4BVRHjgoRBCzI+1SvSB6AA4LMcS7Fz7RBxAQGu7F82Anaz74AEJCDLFTvHuxo78dwAlIiCE+0HJvyo+ziufUtCtegEIM8UdO+s7iz/7swuJlFkrAQgyRdp3q9vfGFydhhxMIIYK4pjViviLnIfMDI1T1M9SItF5Rt+T/FH6ghHBiw552yZU31E/wAyWs+k6fOAtiTnGzyrZehgqFvA93EPA0eJO+tZ5mOzf1hwMjxOyI04T6JXNTfURghM0tLKTOT7KnkK5SOCuc/PrCjpn7yAhXQuKYv6WnynMDdR8+wsKW9K313tBrCwSqL4XTUYmpjPk6y0pPNyJqPCxAIfHlhWqTZStPkxqUsAWn3rS76s8ssPPUiCgh3NXQ3l34dya/tEjwJARKqHPoIiV1NM1HduveS2eDEl7+q6s4UAY3Xf+XFzn1cSvihEAjLijXmy7+HgDghYgTqmZwSKTchbqYfPqkByJS+LG20h+UJaVzoA8iVjiQrLkidBiXQA9EtNCYrPlK6EevgfJEtPDUij/7gFOrFvRAJAhVuX24rN2xJowT/UBpIkWo6mr+fuZ7oxwTYgIKE0nCk7FVr8fJXddt3tePJWlmaQbKEonCU0Wbsi2qomhz2sLFEFCUSBYyYxgoSfQkhICCRD9CGChH9CLEAMWIPoQ4oBTRgxALFCLKC/FAGaK4kAIUIUoLaUAJorCQChQgygrpQPdEUSEH6Jio84vTho73DheieUCnxLq4emyfEc/3HAgu0CExf+vJQLjbOiqeD3RGLA1roLe0vUBD2AAdEUvj7vyrg+7GDuiE2AwkWNhnDdoCHRC1GiqecdCXY6A9sRjc9Hy3S6tzAbQlQklAc5sxww3QkgjVgZj2KwK0IsLZFVt2I7oD2hBz8C38b9yyXQItiC1YC2KyoRCQT4QTZDLeqO8ayCXqF7hk1pl77oFMIpy3zTs3UQLII2JOhmSMiDJAFlHm7EspIIcoch/KATlETF9KFEoCGUT346EskE50PqeRBpKJ8Lz0F6mjkQeSiW6fLXwAqUToANNHUjqlFyCVWL0PlTWhNKEvIJE4/C4T5f0Qf0AisRm4Th8t0illg0QsjenpK8tsQ8kgEVvDkrBtOqVskIj5c8++RXewTqcMiFhfH0S7ppxzMQaQ2qOWevapHe9mijLhHgdIHRd1Xr2tlovJZLFcbSvSDyCOBaRPw3WTl21b5g3tmXc8oKdXUcYEeiGOC/RAHBsoThwfKEwMAShKDAMoSAwFmGVzGWI4QCFiSEARYlhAAWJoQOfE8ICOiSECnRLDBDokhgp0RgwX6IgYMtAJMWygA2LoQGti+EBLYgxAK2IcQAtiLEA2MR4gkxgTkEWMC8ggxgYkE+MDEokxAknEOIEEYqxANDFeIJIYMxBFjBuIIMYOBInxAwFiCsBBYhrAAWIqQCMxHaCBmBLwROz5VZmkgFm2v/xtkaa+Ovwx8liWn5P16mrewZ+JLLpVWTa1VlrXefUM/0BXlHGzmj6p3a/9Gv4peXfxDzSenSOo2eZDAAAAAElFTkSuQmCC;" vertex="1" parent="1">
          <mxGeometry x="152" y="627.5" width="24" height="24" as="geometry" />
        </mxCell>
        <mxCell id="obZEuTfXzIU9tXFM8pBn-19" value="" style="group" vertex="1" connectable="0" parent="1">
          <mxGeometry x="58" y="555" width="143" height="30" as="geometry" />
        </mxCell>
        <mxCell id="obZEuTfXzIU9tXFM8pBn-9" value="" style="rounded=1;whiteSpace=wrap;html=1;" vertex="1" parent="obZEuTfXzIU9tXFM8pBn-19">
          <mxGeometry x="4" y="5.5" width="139" height="19" as="geometry" />
        </mxCell>
        <mxCell id="obZEuTfXzIU9tXFM8pBn-12" value="Working on Azure/GCP Cloud" style="text;html=1;align=center;verticalAlign=middle;whiteSpace=wrap;rounded=0;fontSize=9;fontStyle=1" vertex="1" parent="obZEuTfXzIU9tXFM8pBn-19">
          <mxGeometry x="4.5" width="138.5" height="30" as="geometry" />
        </mxCell>
        <mxCell id="obZEuTfXzIU9tXFM8pBn-20" value="" style="group" vertex="1" connectable="0" parent="1">
          <mxGeometry x="183" y="596" width="64" height="30" as="geometry" />
        </mxCell>
        <mxCell id="obZEuTfXzIU9tXFM8pBn-21" value="" style="rounded=1;whiteSpace=wrap;html=1;" vertex="1" parent="obZEuTfXzIU9tXFM8pBn-20">
          <mxGeometry x="1.7902097902097902" y="5.5" width="62.20979020979021" height="19" as="geometry" />
        </mxCell>
        <mxCell id="obZEuTfXzIU9tXFM8pBn-22" value="VSCode" style="text;html=1;align=center;verticalAlign=middle;whiteSpace=wrap;rounded=0;fontSize=9;fontStyle=1" vertex="1" parent="obZEuTfXzIU9tXFM8pBn-20">
          <mxGeometry x="2.0139860139860137" width="61.98601398601398" height="30" as="geometry" />
        </mxCell>
        <mxCell id="obZEuTfXzIU9tXFM8pBn-24" value="" style="group" vertex="1" connectable="0" parent="1">
          <mxGeometry x="183" y="629.5" width="57" height="30" as="geometry" />
        </mxCell>
        <mxCell id="obZEuTfXzIU9tXFM8pBn-25" value="" style="rounded=1;whiteSpace=wrap;html=1;" vertex="1" parent="obZEuTfXzIU9tXFM8pBn-24">
          <mxGeometry x="1.5944055944055942" y="5.5" width="55.40559440559439" height="19" as="geometry" />
        </mxCell>
        <mxCell id="obZEuTfXzIU9tXFM8pBn-26" value="Git" style="text;html=1;align=center;verticalAlign=middle;whiteSpace=wrap;rounded=0;fontSize=9;fontStyle=1" vertex="1" parent="obZEuTfXzIU9tXFM8pBn-24">
          <mxGeometry x="1.7937062937062935" width="55.20629370629369" height="30" as="geometry" />
        </mxCell>
        <mxCell id="obZEuTfXzIU9tXFM8pBn-31" value="" style="group" vertex="1" connectable="0" parent="1">
          <mxGeometry x="24.210000000000008" y="670.5" width="49.57999999999999" height="32" as="geometry" />
        </mxCell>
        <mxCell id="obZEuTfXzIU9tXFM8pBn-28" value="" style="rounded=1;whiteSpace=wrap;html=1;fillColor=#dae8fc;strokeColor=#6c8ebf;" vertex="1" parent="obZEuTfXzIU9tXFM8pBn-31">
          <mxGeometry x="0.01" y="5.5" width="48.99" height="20.5" as="geometry" />
        </mxCell>
        <mxCell id="obZEuTfXzIU9tXFM8pBn-29" value="Git Add" style="text;html=1;align=center;verticalAlign=middle;whiteSpace=wrap;rounded=0;fontSize=9;fontStyle=1" vertex="1" parent="obZEuTfXzIU9tXFM8pBn-31">
          <mxGeometry x="4.99" y="-0.5" width="40.01" height="32.5" as="geometry" />
        </mxCell>
        <mxCell id="obZEuTfXzIU9tXFM8pBn-33" value="" style="group" vertex="1" connectable="0" parent="1">
          <mxGeometry x="89" y="671.5" width="61" height="32" as="geometry" />
        </mxCell>
        <mxCell id="obZEuTfXzIU9tXFM8pBn-34" value="" style="rounded=1;whiteSpace=wrap;html=1;fillColor=#dae8fc;strokeColor=#6c8ebf;" vertex="1" parent="obZEuTfXzIU9tXFM8pBn-33">
          <mxGeometry x="0.01" y="5.5" width="60.99" height="20.5" as="geometry" />
        </mxCell>
        <mxCell id="obZEuTfXzIU9tXFM8pBn-35" value="Git Commit" style="text;html=1;align=center;verticalAlign=middle;whiteSpace=wrap;rounded=0;fontSize=9;fontStyle=1" vertex="1" parent="obZEuTfXzIU9tXFM8pBn-33">
          <mxGeometry x="3.5" y="0.5" width="54" height="31.5" as="geometry" />
        </mxCell>
        <mxCell id="obZEuTfXzIU9tXFM8pBn-36" value="" style="group" vertex="1" connectable="0" parent="1">
          <mxGeometry x="157" y="670.5" width="58.01" height="32.5" as="geometry" />
        </mxCell>
        <mxCell id="obZEuTfXzIU9tXFM8pBn-37" value="" style="rounded=1;whiteSpace=wrap;html=1;fillColor=#dae8fc;strokeColor=#6c8ebf;" vertex="1" parent="obZEuTfXzIU9tXFM8pBn-36">
          <mxGeometry x="13.51" y="6" width="48.99" height="20.5" as="geometry" />
        </mxCell>
        <mxCell id="obZEuTfXzIU9tXFM8pBn-38" value="Git Push" style="text;html=1;align=center;verticalAlign=middle;whiteSpace=wrap;rounded=0;fontSize=9;fontStyle=1" vertex="1" parent="obZEuTfXzIU9tXFM8pBn-36">
          <mxGeometry x="18" width="40.01" height="32.5" as="geometry" />
        </mxCell>
        <mxCell id="obZEuTfXzIU9tXFM8pBn-15" value="" style="endArrow=classic;html=1;rounded=0;dashed=1;strokeWidth=2;" edge="1" parent="obZEuTfXzIU9tXFM8pBn-36">
          <mxGeometry width="50" height="50" relative="1" as="geometry">
            <mxPoint x="-130" y="-6" as="sourcePoint" />
            <mxPoint x="67" y="-6" as="targetPoint" />
          </mxGeometry>
        </mxCell>
        <mxCell id="obZEuTfXzIU9tXFM8pBn-39" value="" style="group" vertex="1" connectable="0" parent="1">
          <mxGeometry x="66.5" y="70" width="104" height="30" as="geometry" />
        </mxCell>
        <mxCell id="obZEuTfXzIU9tXFM8pBn-40" value="" style="rounded=1;whiteSpace=wrap;html=1;" vertex="1" parent="obZEuTfXzIU9tXFM8pBn-39">
          <mxGeometry x="2.797202797202797" y="5.5" width="97.20279720279719" height="19" as="geometry" />
        </mxCell>
        <mxCell id="obZEuTfXzIU9tXFM8pBn-137" style="edgeStyle=orthogonalEdgeStyle;rounded=0;orthogonalLoop=1;jettySize=auto;html=1;dashed=1;strokeColor=#A9C4EB;strokeWidth=2;" edge="1" parent="obZEuTfXzIU9tXFM8pBn-39" source="obZEuTfXzIU9tXFM8pBn-41">
          <mxGeometry relative="1" as="geometry">
            <mxPoint x="53.5" y="484" as="targetPoint" />
          </mxGeometry>
        </mxCell>
        <mxCell id="obZEuTfXzIU9tXFM8pBn-41" value="Slack Notification" style="text;html=1;align=center;verticalAlign=middle;whiteSpace=wrap;rounded=0;fontSize=9;fontStyle=1" vertex="1" parent="obZEuTfXzIU9tXFM8pBn-39">
          <mxGeometry x="3.15" width="100.85" height="30" as="geometry" />
        </mxCell>
        <mxCell id="obZEuTfXzIU9tXFM8pBn-42" value="3" style="text;align=center;verticalAlign=middle;rounded=0;labelBorderColor=#FF9999;labelBackgroundColor=#F8CECC;glass=0;strokeWidth=4;textShadow=0;fontSize=16;fontStyle=1;whiteSpace=wrap;html=1;fontColor=#333333;" vertex="1" parent="1">
          <mxGeometry x="29" y="70" width="60" height="30" as="geometry" />
        </mxCell>
        <mxCell id="obZEuTfXzIU9tXFM8pBn-44" value="" style="shape=image;verticalLabelPosition=bottom;labelBackgroundColor=default;verticalAlign=top;aspect=fixed;imageAspect=0;image=data:image/png,iVBORw0KGgoAAAANSUhEUgAAAOEAAADhCAMAAAAJbSJIAAAA1VBMVEX///82xfAutn3ssi7gHlorw/DrsCIitHjfC1OP2vXzz4yM0bDrhp/fAFHrrx2q3MSs4/jwprf226rrrADeAEgAsHHeAEzw+v4VwO/87/L9+O/v+fTS8PvR7N/3z9j669HuvFRZzPI6uYO/6fm95NFLvYvk9Oz88+Tzusf44r3xsL/33rPhLGLttTr1xdDuukt61fR2yqOh4Pef2L3umq7jP2301Zvob43xx3ZbwpR4yqTc8/y14cym28H64+jsjqPqfpnyzITmYIPwwmjlUnnocY/98vV5QFQEAAAK6klEQVR4nO2caUPiPBDHkV1aFFuPloIIagVc8AIvVldXd5X1+3+kp1WOJs0xaZuk+PT/2pj+mMnkmkmpVKhQTI1GI2HL/f39TL9EgtrrfqUZquKvd4Va9moPZj1U+aHWkfR1qdUeNyuVtbkqlea4DWzZuaqbZnmugPRXHiHbfnOJN4NsrkEM2TuuL/HmkP28MTbGzTWSmj5vTO7362WS6le5GpPtCm6/pR23mS2fYvZb2NHMkRmvyQacmXGd0bJGNuDMjDfKCDhaZwEGZhxTW17RDDhDrCmkYIhpQSYiBzAvVuzyAANHvSa2vGG56Ayxp5iGoAYfMEAkzYwdPmCAqD+i+gDAQISWAL5AfeVEmLZp0wSqSjyg1niDcGbEJw1UUcEAAz/FZ/59iI+GMrVwLQQ0IcGIQBMGhFtayOYC8oWIWEuoCcvlYy1kMz1CAumMEF2E96AmDEbiiSa6UNdQJ41N+9zJPuKmOqd9H+6lmJvCAfVOGHAnDaLpY6ThCXwYBm6qjU9kGGIDUWAYah2IXfgwDAijG8UtEUKNG0Uxwujy+0aIUN+yBjzffxBG53zwfP9BqG/O//qEYl66ioTtL08oNlusIiF477S6hL4A4moSigTT1SQEHUOtNGHJ//KEgMPSFScUOcZYUcI22IirSlgaJzptWyVC8Ky/uoTQpdvqEkLj6QoTAhFXmZBxjf9VCEsNwBJ8tQmDNXgsm+arEZYa6xzGlScMtO03K/QR+RUIA0N2r8f+lyYEqyAsCPOvgrAgzL8KwoIw/yoI5RM+drvbKdRtc1L0MyU86fS2tp468IyNx2u/GW4SUqlZGbNqLTIjPPn9UK+bH6rX+zcQyu017l4WprBo5pHWS0aEvYdosU1YiXLM8+htyIkLHLI5pnhrJoSdY0JmlcnMTYEct4gykgtKsiC8omSO1fvU3HCBiyQBRl8O4UmZ/i9oGf7cuomEiGsET01N2GOm/pHrNDiVL9kipiVkA5KrbSRZ8BMxa0J+qUbcivB7wCSIsbGYjhCS51/HEhobWQdRDBEvC0pH2Ie0NtGICr7nTCi83CIV4W9QY/NKmY+Gwv00DSG0FgXxU18yYKy2Kw0huG0kA166CWNGTEMIToKPGFH2KAyFjsQUhPAUcfPXopF8E2KJ7GkI+/CGizIGoUTYxPKzIQTXvJUjbrquhLCZDaFIpYY5X7v5KgDRmpnkhEJ1DA+zRkpMiNbMJCcUKAkLpDDQYCu35IQCgWYRakTSYNMQZnMHLAI4rwQvCPUTPqUk1DEOxSq7eokJZ400xNInofrDTlLCeaW7r4YwursAvRixINxPSjifDzWsaQSK1bE3B0QAF2saoRK0xEK3TwLTGrpZFyJcDGAlewv0qEYg1CCBRohwWSKtZH+I3tIIFHOjpdwCgBHjK9jjr+EHimA3jexjBQmjMVg+YBO/TeSdWi+/8yQpYfRBDSl3Moji9zNAI6JxRoQQvZ/J/FoNUzN+VwqcEvFnlMCAJvrYhOS1KeGJIeDatI6fd4MJ8Z9mWy4iAbBUOgYY4gFvBAaMXQXLXNhUyHfd+1wjmvHXd4CAJuF6Td6kWKElLPAmRbMcv68GAl4RuitRnq+UBxggMq1IAoQR1omAki5JiZfcC+0f0xnjYxBKSH+MsL2WuacyX74MRXv90qR8Jp/PLLNee+GVhYjy+XQPnatDeqLVrD9Q0pu4fLwHMxvrjKIQMVWaPuy15F4fe6Y14KOagY0X8AEeWuyOK6nT2ioB3jXffnOd3PTn2Wlmvf7wm/GVJl118wr8VOZjd/t6PYWuu9BnoJfqPN3UarWbHufJpBpFN1s9ne+6FSpUqFChQoUKFZKh58udl02K2C0PBrcvmy+3pwfCfR6eTTZSaLI7/AHtavDTcj2rSpZVpTfc25kGDcOWluW5d7fPYLofk5Fj27aRRrbt2PdDfl97m55X/c4SreXBq2shf2i500sQ3/DIsb9logBzo8XubNNl41EJn6eklt4d31sPR46RDd8npLPB6OzguxX/ShDhLe2Xcf9wAP86GeJ9yDYOaZ3dunw+MuHUo/65db7H4GtdZOSfiJwJubef9M9kE75/Z7l21aJHnB92lg4aQbwn9fYK8FAiIRswkEdD/JG5h85lv8V7+wOzIIHwnBucLLKjtmR46BzxL97bKWgMkginXMDv1XMi4YUcF/2Uc4Z2tgcGxAl3ILa3/hAA/0o0YYiITowAQ5AJgT+NG58XD6UNwk8ZR9HeBtBBGCP8Cfxp7mKEI7mAgRGjS7hzOCBK+Az1bg9fwA0lmzDQxbK3SwETooT/wN49xQiPZIaZTznLtc0rfBRihPAA5aKTorypcCljMSm+w78TIxwAVwmBrFuEcCI3kH7KWXyniJMihNA4EwqNNdLjTCh7Hms2RZwUIRRp6CKECpw0cNP5RmoqAhglFFgnBNE0OiUeqnDSb9+OElgCITwQcW/rNNLyTA2hPetOKNBECQUCDRZqlASaRagR8jWE8FSEsPoSabkhfzb8IGylJNwRItz8XxFOlBKKjcO7bAiVjkOhWFp9zYRwqIbQmHU3FfnOl0wIZW8OZ4BHs+5eBIzoDTIhVLymEdk8ue/ZECrYPAUT/mL7JECIrJ9TEO4q3VsI7GOtnYwIWyr2h8tz4QPwfIFuEFIQlt6U7vFLd8m+Mg2hgmg6inQHNSISZ9IRyo81DnIFBTup8dCTiHSEsk9qDPTq4h3yrVX80DMVoeyVm41dBl8C/NTDL1jSEcr1Uyd2Tcq/Ho2fzKcklHk1Q7ok3eQguoNYk7SErW+yEMmX+WwruoS8irSEpZYkK9KuuQd0xGqVdI+bmjCY+CWEG8OhptXs3VFWqO5P4t9nQFjazTTXJJQ9YqXUnFqEj/bOKVkxWRCWWveZMtr2Gbmf5VefI6kxVVZmUyaEwdz/18koJ8NwLnY5fKGeX+5cz7OsMDnNm+4wstMyIgw0vDfCxLZUcpzRBJy8V3q+PN3ZGVxycu+yIwzUOhye7SbXGTw1UUCZEuZSBWFBmH8VhAVh/lUQFoT5V0FIJ6Teco/eJkNOxYRKpSCkbu0Nw3ZGkC2QEknLVLAdXumLIknMxTCcXNhRarYJ+7hFkeTm0xjxY2vlkp0xRD8VVCXpOVHaEeVnfTkyDl8EpCCvzaB2rkQqCIlVaMqkIjdRb0BVkn15Qe1egZQQao2nSgjRCi3FUpMjrHPGUENoa1yDqyHU6aaKMtkd6gdIlypCfQNREaGtb9JXRahvRlRFqC+Yfn3C5HVPQjUz3PwReRKqkEZSxIUS2TWOw2cRQqReXahmRueyTaRiCinmFkoQ1jjjgzPgP7wUaSliwxGldxUSqCeqosl/9wLbJ0oqpRKBH43ACqaEBqLe8zb4gxoe1hJOqPUYAz7nx+5HwXO+zu1hKCihi+f5gwufbGK/6nQKmxKt+BU3/ZIUBdS3oJkJOGEQWoLc1NA5VXwKVAlOeEQJWNvl5OASkZHhPxdeLzXThI+o/fLpQ9xqG4uc6R9M+7yhSKubUC1OtY33Sm3JqbZgPmOpVEwrMl+/ZL58mRcLhrq0aAvUqnvKbHlGLbYwNB5AEfT+SjajN2W97RmqdUQ2o/OWgyiK6OAu9khr1TuP17vFNbyI2dFwRrky4EwH/6JPEFc99xX2jHAwM75FimbCtK/7PPJ96PJlWnVDVaebg3f+3y813DiynVDG0UZu8eba2+ONPZparbyNvUK50H8+jaVnWGS2IAAAAABJRU5ErkJggg==;" vertex="1" parent="1">
          <mxGeometry x="92" y="33" width="39" height="39" as="geometry" />
        </mxCell>
        <mxCell id="obZEuTfXzIU9tXFM8pBn-49" value="" style="rounded=1;whiteSpace=wrap;html=1;strokeWidth=2;strokeColor=#006600;" vertex="1" parent="1">
          <mxGeometry x="287" y="168" width="466" height="217" as="geometry" />
        </mxCell>
        <mxCell id="obZEuTfXzIU9tXFM8pBn-141" style="edgeStyle=orthogonalEdgeStyle;rounded=0;orthogonalLoop=1;jettySize=auto;html=1;entryX=1;entryY=0.5;entryDx=0;entryDy=0;strokeWidth=2;strokeColor=#A9C4EB;dashed=1;" edge="1" parent="1" source="obZEuTfXzIU9tXFM8pBn-17" target="obZEuTfXzIU9tXFM8pBn-41">
          <mxGeometry relative="1" as="geometry">
            <Array as="points">
              <mxPoint x="605" y="85" />
            </Array>
          </mxGeometry>
        </mxCell>
        <mxCell id="obZEuTfXzIU9tXFM8pBn-17" value="" style="shape=image;verticalLabelPosition=bottom;labelBackgroundColor=default;verticalAlign=top;aspect=fixed;imageAspect=0;image=data:image/png,iVBORw0KGgoAAAANSUhEUgAAAOEAAADhCAMAAAAJbSJIAAAAkFBMVEX///8giP95uP8Agf8Af/8Agv+ix/8ahv8Aff8vkP8RhP89kv9ztf9wtP9Gl//7/f/o8v/y+P/t9f9ZoP/2+v/X5//l8P+91//F3P8iiv+Nu/9Snf/Q4/+bw/99sv+61f+vz/9zrf9np/+qzP9+s/9rqf/d6/+HuP+Wxv+BvP/J3/+ZyP+hzP+JwP+u0//C2P/J1hgOAAAWt0lEQVR4nO1dCZPiuA6GdoKJuQlXCPfZzZvu/v//7hEgsnzGDs10pmpVu1VbOyHjL5ZlSZY+12ou0pvMlqu4GyVJEnXT7bxxGTr97h+R2TylAQkprdN6/fovpYwRkuwa498e2U9Ib7oLCKMZNFkoC9jh8tsDfFLGK0p04BDIZDn47VGWl0saMBu+u7Bg2//tkZaTcRoUw8sx/oN2Z3h0xXfDSJa/PWBfaRDmji+TsP5P2Zxhl2hAXPeIMCQkZKHWtAbb3x62u6wV+0lDEkbpatnYfE83jeU2TYg6yWFy+u2RO8ohkOEF6fwyEh8aTs9REEoPks2vDNhTeqk4bhp094Yd7zRPpNlu/gMGZxAJ2sfI0ap6s24gPE8Of2ugZWUQ4UlhwWpS9ItFLCg1Wf2NYZaXkQAwSJ1MxyzBek2qbVJbCCCla9efLbF3UGlFTdGaIumo+Ae5nPDqDaprbg5on/e1ijH6bTB7zfielg0yGcR7kHP+a0qqGWxMEMCwRPS+RxC7Pz+8HxBkZUgp92vT5C+Y//TofkCWfCGRRclX8FkMqpfCQTraVNbgaDy7FG79VznDV6qgnsago0owe0nDgBCSNHrFb4FNg+xfM87SMoMppLH4J8M4387D+rToNSP4TpS+aqglhZsZKm70ExztBnFRPmYBXyqs1r4/gwUUiPM0SoTwiIaNgjcdch+VMg+f6PXSzXHIOrqVI3nSsu8kPcg/Fn6MvylctwLRZPabdVlocLa+a8N3nVcO2VOO+Xdn0uiXuowbS6wuHSxp8v3KMXvJAOI7IlmSWJ8zDY6WTP46n0S6e+2wPQQUi8nRa4ubGHEaw435dYnpe/2ewEwFshXJEYaNpZg9pKRrdHL2+dcIq7Lrj3I7o7paOULWqE1SMa9GA5N3DUrPYsMTf1umuZKq9h0hvCozE+1OmBg89B3YmmI/76/IKh94oKwbAWFtcJRyxcFWCwE+GanIWUYOQxMPiAivTngiWRymy1b18l2UVcNzG4AlVReWjPAaIDWl1RhrMha5iyR7SL8kC9ApdSNXEdZO0rkUDVTvbJ7rffLSkbvKJlc8om7jGoTZ2aLoB5CuPI3gyAeVOOO3fXAtwtpwJ1ocxqR9FBIGZfMhPyvbfNGk6p/pEV6tZV2wODQRbSoEwqQwZv4bkj6GwzRnKiaEtd5KOOYPJSMV5f+/EhFUfhijoKhZENZq4whbHGlvz/1AjXn+BYF50HiRFoTieYwUKeVeDavEKQ0g3Kh/ZkVY6/OKG0lNYW1X4qgNpkFjFewIr7FgoodyftjnaoSIeThHNA5YEcILeHwiwkOlEOaWxl9L0b5YaS1tlbOlom8jKcCOVcnSpDkKTSBg2y1aeLcIxOQo7LH2vNxfEptGue748lwlpt/9iuR+qe64yIRwTa1e2yB3davhtTW8Pe++WEJTp/KJ6qlanjcPddRYVotw2ZSip0hOu63zGa5G9NSHD65uiBqEi0iue1MtFGR+opeO3FV6dXNwoSAcbKWTDG0WIw8tqrHhc9OuWYgyQiWhqK2bGuZaUZFMFD9+UUswRISnrpwUXmmziQ3Ii1SkXmEMn1yJ5jDC3lmqbSctAwA4jWSvHrqrUKOaIoSzRFRQnYW5C2Rp6PHFA3eWA6ipnKMGhHMp+UQtR/pzUNJK7PeZwBGwkozi+iYqaMjMg++Bv1qhk3w48QskH2QnAoMJPFiOXJZQq1CJ0OkuYE3lDawRagAaLcxNevCc/Ll+Uwa8UuFi+AM+gQUZQkgw09Yrh+wrvKhE8rOWcvNMsLMfXfP6OF1W5PdkYixlSsXmhKSovgIcpIr4pCBQbyKf5fdafCkWldLUssxGNacQTyKVt/1D8zaNlAbdwsLaE39NxaYQbdN1JgcE/XNCgoDuiku/e7wKrkqG9CF8sWlKmAeniUvRAV+0ymeqgFxQCXPJOpgj6AFllQjuJVlxqxlsSr2APPmClwsqJS3TZbfjAMPKBBWinHDbi2+yeoQ2ThpVpFJIkTXKwZDYayWdcPTIqtkyk8kczSJlHgVNDey/VnCj4LIVziK2jvHdKcU/a1Ym7tWKAJExl21jdBDyN2W3mr8mRwyRkqjIu+wtxSOMZtUBKr3qJNlYTM5kTsT8RlBtFb3LUkoahuFuql2Q/X1KpAw/q7KR4XIJpewMJc3ufIY908FpvUoC+TnWqkxhd4H0W0p6hjJCaCs+bs+H7S6OWBAqfQrUSowx+d4v5+f5srG5/JjLOrhsGreX7mcunXWCyOntO4Q6o4wxquX9uBrejelt42XKgowxhF3/CUmQHDdPT/Zwc0zwO1m89DtCWERW9iQVfXA0bJ6TeUJkpiJKSLp5wrPrbbpEWUqMJHOvqWyEDgxKMOLIYGJmsUwPAj+h55IT2T8ww+cPg9jH1PXmTP5OJnwtw645llgzxJ+FwbzEPI7ONvIqGsQ+yjpY2pm+bq9kQdewB/a2RURMrO6drtowvU4gjH5h0TRWFB6/7foFVqb01IU6EDEFO69pHMUO7FWs7rcrD/dxQHTf7bq02XFmHOBcTZdrh+NDTLSou7FXefNWjGZzaPHK2KIy60xaO6t5jjVMU1S70QTOmrpRuyEN7yT+SYY9nEbEq8N8PzsVKFdXmvWrw8CidBd3E6aovWtSpyFpRaZESTfepRFTWKtC704PKCtyCqhqIhMTC5LVOnf6BuPGjogGrOk0i3sB4HVL3TXGuXs0yZxIAWSoqct3Q+hUQBJjgGG4ktW5NxX5/FzIUNYYIA3SqaxF44NgLnyzYYCwHhYH/iucDAnOWj90ges6lLIxzfMIICVdrbUcCC1LntwcHGHxiQtmgQnNZx0btB7l0j9FRmjo1LxSTnj9+9HkcISFjBd9BNB6WIVDmCKdQg3JYcuWyjsje+uVeG+ghHjBftrlgymykmi92j84sjJhgSFAGuTVOocQ6rqH8N+AcvuFKQ1+0mFtcxtxhS42IN98Fn30FCG0D7zHB+OyCXAyFLmxCAs/hHdpLUZW16M7ECOUyUEEWfLefifXiRPEEeNbJ5z2xqn6gRcfeHDIiAjNesppMRwXwYSfzBonkU+hI8UWt0vukyggrBOjiYQCHOqwb95kDxQM1LBjDGBhuXJrDuA7u1cTiAjNznsEg3HWj27RaHg9kzM1ExRMFJhF/BPJszXQDYxhBdjUY7BiJIG6Izh8Nuk1UIlY96lNREJO2Ax1bE3XczAZYZ1ot6W5C2HEMMmUKIAX8EnU7tBQ32E1M9vgFtjleDhzhWvHh4LwGrpqviiEkczshfUfAR30gAMZir5aE/5q25p6nChxPQZ74KqmKsLrEFfyN4cCb0tZYh8a+vIpgXJNfZdUbhhttExwZAY8cXlVgtF+uSC8hrVzUcu/La39OcA63wDz/5fXeOotCcyG2V3bqpVYMwWzK0IxvRSSdI+CB7B6ocnnRQC5MYJFE+h+AbwkxqWNDj3h045gIW48EbbOYgKGhkE93p6X+0ajsY9lBbQBDEEnoUSCzbPXCLKHak6FPCcXfOTJdTK3X67N1oAwUpNolN64zK8C/gxfht+HM7cffZQ1ohTmecTdzlAR+LMmvOY0PzR4vhwDRK6wb5MnQniNT4pyllDCOewGjAWtBxY8g5ShM4bE8i4QUOpzM2QhZOgwQOyI5CvG1ZhihGJpiRZhvmTufjVNbl9cnEF8iNIt+mR1ZIbuOkQfsacAEO99+eJ2LVUWENZ6h6Z1TLlFy3c6mgwsM4jLbi0IHx4PhGc3iKYZRP1zjs63iDBLiNhUNecfgKDgOovCDEo1RQbSNBHhY7NA7HkbHEHXJRYZ8CNKIry6k13zGVBuoXkxII0ik4rWHOfwsZ4WfNbC1AyQk9KURnj9u7bMcAtG7gzuNan9DKDsDUe6x2R5rKcB3hvMACGOK7cOc+lNV1F24QXN5fFQ3sLd050pKDOIGq/qVBH4Xe4CHXSfTSU6AloHx3SUHmEm/VljtYvTbibgcuZvPalzrM4gd1vqra4i4MwDE1msnoRpmJzA+3Ak+jcjxJInaTgBrQJRM4PcnVXp1BB8Tp+iQNQAhD3WlSnWDSH3vMHDkiDqAHKF0jLzAoMfT51IEHUAeTu5Y0bRDaGuPfaEl6JGRWv8c+uXDGwl6K8WIOoAosZYxyDfDSE3iuixE2pJ0c0g6mHVKhSMFcdBOFuujeITzUis4ojwDKNBCYAJOOTaGQQf2UAFP9aG1QBRD/Bij6o14ogQtmNB4SZ3R4vVtQD7RdkrnlXChmh3h9jU52Egl+5M3eiI0NCrOUkIpSTSVwiBa2eyepDeEgkDtlefihkyqLwr1plW3BUhjEZyJRrbrSFEP0G+NzDUbE34E0JG4nI4zg1mBBKQttMQUVwR8sND4pjG40TbxjwMuK3OHhjP2zi3DbgiRGcMbikgYDi35Ht5w1LoxOgDtkklRjaLM0J8AuxwcsFPwmz+I489XIpvBjxlYFJ8jTgjrJ15e1erMFU5Q+1klmKFEzr0LLSNPR6nhR4lbu4IR3wOaatgFqe8HsPOKLXin62IxmCA7lrxIQRwR4jnhSbWtbhEVQX2OLWHclX2orUxChq9ijE8EAq3Deg9jpsMhAuUCszSwrElC/eeh14XpPkgFFJnpGUwkQKTbXGjDR46Ne1EC8yw5skH4IVwIIQT2srkvXhXm8PX3go/SPaqFVtIxad+PQFeCHE4Uc8K9yKhUHMw24qFvkUlMncRqwFDtpphCONlJOIjng0KfghrY6X4ksbz/fp7um4cuqFUu+8GUCY/yDpAuqvGevq93s9jqpRf+tIbeSK8hvZKs8DjmlYlBele7apU5WYvvb5Tfak+EP1RhLVhy61g2XwBgUYOjncUh13/vhxvhPeT9WKAfjxEU6c+l1L39pZAWJtSNe0nCUk9u0qGxVdp6xnWCqUMwtpo1bSqaqmxrO0NFyxYleNuKoXwGrxujU0zlNRLUn826kZdZcHW28Tkby3LhNhfJprDDRqStDy7S2+d6vpcGEmW5fvkSyO8yuIcBdctEIpGQhKk+ydb9vuNNOvNy9953Ryb0fmpBtZnEF5lOFtuu0lST5IkPu/HP0K50Bvvz3Fye2l3u5w929H4JMJ/QP5D+O/Lfwj/ffkP4b8v/yH89+VphJNZxvAwXza+Fj/GGjHqjy+z6dd0djk9T8ix96wwEuS0TO/Jhts/hESr9dMjGi3+vHU6nfZdrv/xPnvO1YUaKm965/48UsrDWMYa8cxwFu9XTG+itDsf0yfUA8qmPa80vMRNE2sEmZecyMFXp/OmlXbnf2XDQ94q4pWGPFlzDsztNFCS3pcyeyLGksoKlTIelzb2VvYq1Kx2wauRNZNF24LvjvHL9513gXXoTFewSAoTUcZbME3S+59BPwWMH6VUNT+Gde48XWoIEDQSJh7DmbwVTOBDOt6qUUO1QJZ+Hyw7TY0k1VE8UHe9HztM4APiH3+E/PZUpxRuKmWfGAlIlMZxN2kGoQTTlQFtJgHMtsG3z/f/fX50lL2j/e6NEC75dVJTmTUiOvM8ymlzZGVYIy4iwE77zwXeORh/fYgg25/eEKEewqFEZYdnkDW38jnQaN0SWSMcFHUhAOx8LuTVMvkjYGz/zxnaQ8BvK66Fw3XKNDiYWCPwQ4XmZtIR8GkLN0ZfwkO+uwYnoC+6UBxzdIQtYxHJHhNjFDn0PWECjVPe/0DT2PE9QoR7EgoKjQTWCNt8C6wRBcdF73zk7Q/bF8bT2PZ0U1ErhzW5zAuYaFCgKGhLsVeGoEXYKVhf6FFvg8pLLGwhFOKlKN7pUOeg7Z09PoPFO90JfQ1PPeWlQBad4pQDTvvcDhTVVlP/BQhdLCR2DIqfFoRv4+ZCoNKsETQ0OktDPmSnXW4Kz5ttkl74vQDGTZp3yfizRhi/CJ/CjpvtQHbJ6XkuZ1Qhr1fBPZ9CR0OGeqMMT/S8p2TEf+F74oYK6Job3QOcNcL5gBdqCU0e7wxmxNkT4y6sr/M2RiGRrkzEjTVClELWiE+YEHd6Pm5OfVM3mDRNU0jhxBohSwFrxLDMfFzyeW97h4oCU5lyzSivkfcI3QtYI0BJvdaUv2aDxChuoCQSBuXCGqFKAWvEO+yFPgmPP+0yv7qLGPuRCLXG61gjTvO0FS8FfV4c0u4RsezaWSNgqF7hEGz7nRJJGyl+D4M4Z47QsEYcmteQnoWodHmQBlnTKaHwFWCLITVVBvlQ2167Nzh67TIVGnIOhoaEtHareSNWJgPKCSHKGIBPAFcMAGuEWK8/OI0Xi8salqFfIjS3wO1SycWzJhF6I8KWlyGqXW4+WkBR6JEHmsAagV310Xvnfi4Bdt9vjLAQSySlrjK180TnDtgoszyUdm8FTPcg97b7seRWkA2dWtDRuuEAlczvh+cQ89/756RuMoxttZX5SLN9gKaja6wLKpi16Ge9FYswm/bH24CHhO8+X0pm1NPsw47o+WW4TBMzhXK+sWUOwO2gIzvYuVNJXMHcbwXLWFnyzuZ8/aJOsw8ZoO9cLOATlUWYBUqmtH3edp0hvJnVzJbcJzabrlubQHbmmluWHCFvnOmpyW3P3BmPEssjrI2Wib4OMtfSbBu4rclMN+9mJLvC7tY+krk/zceemL5yDktr6V1mO4WkuM5ZI269kWS734VAZJVRY1I632cAgTomj0hQiCgnuL3XITh7/m6bJIP1NmnemCM4TwVo283Fo7cF+zgs7GX/Te8bC2Sf8i0Sczp9yhDbfuP6etKWijK4NM7HbqulsEYMOVVG3qNz4SyI+WbBaROw2zL7yDaMD1BXzzgod2fbm+ewiQLMRZw1on6zRpS0YHzrx32KTfDO4dRHur++1+shr80zcQZTX+akzSj8tJ+PZhkFAenicLG/SoKAxXy+DsqHwQIOppf7BacAHmGzg0D0JKQGB32len4o/C87awRET15GEVwa7yDfLjrWiEJZ2FkjeATsEwd9lPouxQI3fPvcvcZZI7QrDfSt7eFDQ+K7XGhhFqCj8CCaLmSN4NbUvVcEVPtnl2ENpRv186EToMsy8R9AhOhu+NFpo+tPXIWzRrgy4hazRvBkm3MQDAnI9o/fkjbkfA0/xxoBKufqgXGX74ctaSaImdppBfCDArNx4udlbnajz58vF+Db34668R2+H79YxcbgyCfR5eRi8Pb2winEVB40KrR9326sEROfQ88eD7x+equ4C2aNSIpqGvgxiL1OEeU0ijLfA1ys4Dt4N5kiPa3bWSMwv4T1nbgUo2M1jxP85E/vhbmUYo0oGAw6nH/rvJu1HwfOr9HRmwisEV3DNDZwQtLyIR4iDN2U/p7gsLlE3ZezDHFpHg12Gowb4fbBomqaTP7g3FTnQ4NxIhWflusHdhORSpAGrQa+AWs0OzDhXMDlWg7hcD7D2P4SbtXqz6TSvc5rbwwdiycblAX19NDYfK83y2OLyKwRjlzGIsS3dqf9+Wd6GY8Xs6/3N6X8snRJu6NM6lKakT4YHphSQ6u/g0Anagn0vdVCU/rdfv3V4MPIlTXCo2D/S4Gol/bHK3wZRQrvd7zrr1fTemGl/n0JvsAb1cq06LrJEqwRAyWNqk7gm2/VZXkZFXCRhP6XdF6n0V6v3+58/UgvvKucjsZLPimp+940+ZDpm3Ee250/f/1a6f5cof+5Lb/mE6wRtcWnrjOo3Xl7prXrCfneJtdt4r5L0BtrBOsun9yu+tPP637IizKvm8bH16scbRcZzpaHuBslSZQez5vxj/hTvcnl689nFgx+vG+mY/Ps/R9AvEodrd5wLQAAAABJRU5ErkJggg==;" vertex="1" parent="1">
          <mxGeometry x="589" y="174" width="32" height="32" as="geometry" />
        </mxCell>
        <mxCell id="obZEuTfXzIU9tXFM8pBn-138" style="edgeStyle=orthogonalEdgeStyle;rounded=0;orthogonalLoop=1;jettySize=auto;html=1;entryX=0.75;entryY=1;entryDx=0;entryDy=0;dashed=1;strokeWidth=2;strokeColor=#A9C4EB;" edge="1" parent="1" source="obZEuTfXzIU9tXFM8pBn-45" target="obZEuTfXzIU9tXFM8pBn-41">
          <mxGeometry relative="1" as="geometry" />
        </mxCell>
        <mxCell id="obZEuTfXzIU9tXFM8pBn-45" value="" style="shape=image;verticalLabelPosition=bottom;labelBackgroundColor=default;verticalAlign=top;aspect=fixed;imageAspect=0;image=https://encrypted-tbn0.gstatic.com/images?q=tbn:ANd9GcQ8QYfI6GoH9cMA7s3JVeb1WSpycZ55U1Cv4A&amp;s;" vertex="1" parent="1">
          <mxGeometry x="320" y="186" width="86.41" height="28" as="geometry" />
        </mxCell>
        <mxCell id="obZEuTfXzIU9tXFM8pBn-47" value="" style="shape=image;verticalLabelPosition=bottom;labelBackgroundColor=default;verticalAlign=top;aspect=fixed;imageAspect=0;image=data:image/jpeg,/9j/4AAQSkZJRgABAQAAAQABAAD/2wCEAAkGBxAPDQ8PDRAPDQ8NDRAPDw8PDxANDQ8QFRIXFhURFRUYHSggGBolGxUVITEhJSksLi8uFx8zODMtNygtLisBCgoKDg0OGxAPGyslHyU3LC41Ny83KzItLTc1Lzc1NzUvMC0zNy0rKy0rLTUrKzc3Ly43LSs1LTU0Ny4rLS0tK//AABEIAJMBWAMBIgACEQEDEQH/xAAbAAEAAwEBAQEAAAAAAAAAAAAAAgMEAQcGBf/EADgQAAIBAgQDBQcDAQkAAAAAAAABAgMRBBIhMUFRkQUTIlJhBjJxcoGhsRRCwRUHMzQ1YnSys9H/xAAZAQEAAgMAAAAAAAAAAAAAAAAAAQIDBAX/xAAiEQEAAgEEAgIDAAAAAAAAAAAAAQIRAwQSITFRYeEFEyP/2gAMAwEAAhEDEQA/APcQAAAAAAAAAAAAAAAAAAAAAAhKQEmyLmUzqlazS2X1eiAvdQj3pxYbnLoTWGj6v6gR706qh39NHk+rISwvlb+oFqmTTMclKO6057oshVA0ghGRMAAAAAAAAAAAAAAAAAAAAAAAAAAAAAAAAAAAAAAHLkXIrlVAuzHMxldY46r5PoBplMz1KnIqnWNGEp/ue729EB2lh+MtXy4I0AAAAAAAAz1cPxjo+XBmgAY6dTg90aISI4ilfVbr7+hVRmBrBGLJAAAAAAAAAAAAAAAAAAAAAAAAAAAAAAAAACEpEpMzVpgRqVOC1LIYfjLotjuHpWV3u/sXgRjFLZJEgAOOKe6T+J0EHUSkotpSabSvq0t7ICYAAAAAAAAAAGOvHLK62l+TYVYmN4P01A5SkXGShI1RA6AAAAAAAAAAAAAAAAAAAAAAAAAAAAAAEJSAjUkZ4LNO3BasVqhPBRdm2rXenwA1AAAAAB8N/aVUcJYSUG4yi6rUotxkvd2aPuT5b257ErYqFKVC0nRz3g3aUlK23DgbOztWutWbeET4fjez/tvUUoUsVHvVKUYqrGyqK7ssy2f2+p97QxEJ3ySjPLJxllaeWSdmnyZ4vh6UoYinGcXCUa1NOMk4yXiXBm7HY+rh8fiJ0JunL9RUvbZ+J6NcTpbjYU1L/wAuus/CsT7evnHK2r0S3fA+N7M9t82Gr1K9J58NTU5d21lqJyUVa+zuz4b2h9rcTjW4yl3NHhRptpNf6nvL8GhTY6trzWesJm0Q9nw+IhUip05RnB3SlF5ouzs7P4otPnvYH/KsL8sv+cj6E1b142mvpaAAFQONHQB+bRnbTk7G2EyNTCxeq8L5oplGUN9ufADYmdM9OpcuiwJAAAAAAAAAAAAAAAAAAAAAAAAAEZMCM5Gac23Zatnas+C4l9CllXq92BGlh0tXq/si8AAAAAAAAADB2l2RQxGV1YJyhJOE1pOLTvvy9Dzft/smcq+Iq0JRxEVWm6ih/e0nmd1KG9vVaHq5412rXnTx2InTlKE44ipaUXZrxM6n42bzaeM+FbOYD/Cdof7aH/bE/K7G7ExGMnlw9Nys/FN+GlD5pfxufd+yc6WPlXpYmjDNOlHvKlO9PvYqadpRWl7pao+7w2GhSgoUoRpwirRjFKMUZNxvLaV7Rjv6V45YfZzs14TB0cPKSnKlFpySaTbbel/ifpgHImZmcyyAAIAAADjR0AZKtPLqvd/BZSncukrqzMcfDJrl+ANiZ0hBkwAAAAAAAAAAAAAAAAAAAAAAU1ZFrM1dgMNG7cnw0RqKsNG0F669S0AAAAAAAAAAAOM899p/Y+t3lSvh33yqTlOVO1qkW3d28y+56GDPobi+jblVExl51/ZtFrFV1JOLVFJpqzTzLdHopTHCwVR1VGKqOOVzSSk43vZ8y4bnW/dqc8YIjAADAkAAAAAAAAMuLWsX9DUZ8Zsvm/gCVJlxnomhAAAAAAAAAAAAAAAAAAAAAAHJGTEGuRmroC+j7sflX4JlOFleC9NC4AAAM+NrypxzKOdJNy8WWy/koqY6UVC9NJ1G7J1ElZJO9/qasVRz05QvbNFq9r2M+KwbmqdpRTpp+9DOnoltf0JHJY2d4RVNOUouWlRWsnbe2pz+oNqGSF3PPo5KNnHfUS7OUnHvHGSjCUbKORau6a10sc/pqapxm1JU4yjbLlvfZ77oCbx67rvFF3zZMt95XtZMjPtDwU5Rim6jtZyyqLW92F2e3GnFzeWk21lWWTf7XfmjkezEmk5ZoRqOeWSvurNN/cdCf62XhioZpyTaippxUVxciMu0HZJQ8bqZHBySs7X3LKuD1jKk+6lBOKtFOLi3ezRW+zU7ZpZ33meba9/S1rcEOhyp2nli3KDTjUUJJNO11e6fEsh2hGVWNOHivG+ZPRaXsQj2daKipLLGsqiWXW3lb4lkMDGM4ShaKhn8Nr3cra3+g6HauLam4U4Oo4pOWqilfhruxRxeaahlcb01PXRrW1mjlXCyzudOfduaSksqknbiuTISwc1NShUs1TUG5xzt63vugJVMa7yyU3ONN2k7pardJcSVLGKc1GK0dJVFL4u1rFbwUvFkqZVU1msqerVm48rnZYGzi6Uu7cYZNUppx/8AQIQ7QlLJkp3c1N2zWsoytvY1YXEd5Fuzi4txlF7prgZlgJRyd3NRcION5RzXu7t7mnC4fu4tXcnKTlKT0u2BcACAM2Mfur1bNJjru8/lVgLaJeiqmi0AAAAAAAAAAAAAAAAAAAAAAFNWJcRkgMtCeWVntL8mwyVqZLD1/wBst+D5gaQAAAAAAAAAAAAAAAAAAAAAAAACM5qKu9AI1qmWLfT4mWjHi9xKTnK72WyNFOFgJxRM4joAAAAAAAAAAAAAAAAAAAAAAAAEJRM1WkbCLiBkhXlHR+Jfc0U68Xxs+T0ZGVMpnQA2gwKDWza+DHj80urA3gwWn5pdRafml1A3gwWl5pdWLS80urA3gwWl5pdWMsvNLqwN4Pz8svNLqMsvM+oH6APz8kvNLqxkl5pdWB+gD8/JLzS6sZJc5dWB+gclJLd2MOSXN9WO556gX1MUv26voiizk7y1/CLYUi6MAIQplyQSOgAAAAAAAAAAAAAAAAAAAAAAAAAAAAAHGRYAEbHLHQBywsAAsLAALCx0AcFjoAWFgAO2FjgAJErHABJEgAAAAAAAAAAAAAAAAAAAA//Z;" vertex="1" parent="1">
          <mxGeometry x="690" y="-96" width="230.36" height="98.43" as="geometry" />
        </mxCell>
        <mxCell id="obZEuTfXzIU9tXFM8pBn-48" value="" style="shape=image;verticalLabelPosition=bottom;labelBackgroundColor=default;verticalAlign=top;aspect=fixed;imageAspect=0;image=data:image/png,iVBORw0KGgoAAAANSUhEUgAAAOEAAADhCAMAAAAJbSJIAAAAkFBMVEX////S5fZIYa1AWqq5zOdEXqxofLvW6fgzUac8V6gwT6bp7PW/0uw3VKiyu9pMZa/09frb4O+XrNazx+Xi5fBzhb+msdWAj8LL3/NSabHC1u3a7fupvd/J3PFVbbPy9Plrgr5bc7ajt9uNos/N0+eKmMh+k8eXo82Ins2RptKkuNxheLmar9e2vtzFzOPS1+nsIps5AAALB0lEQVR4nO2da3eqOhCGgTREtlK1ar1brfVWbfv//90hN4iSQFCBwOH9sNdZR6A8Tm4zmYmW1ahRo0aNGjVq1Ki6Ovj/zFFr1Hs64HvLMUne+OmELiwb6lp+7Qlb+RBCzwSB/AjhsfNigD5BboTgDZmgl1wJ7fLVEDaEDWH5qgghuv9J1SCcdwb2vc8yixDJbYWOntftIHZFxoeaRIgm2/237P8vvGCBtEbkdY/HWcanmkOIXlYA+rJ7NngJOEXkbQFwPjM+1hTC+QUSf2Qee8VLYEIH7DHhHtD/zPBgUwiRPcIcgalihBPygbO0OaEDNhlaqiGEqLMh7+54sSbI7EaehTrUztBZxL4Iswnnn+zN4XcM8IV4miv+TazINwHBUbelmkCI7D1tiGAVb31ojQm9BeLXjti17lLz6eUTohlroWAfn9bJTBFMFVGjnL8xe3cHeo8vnRAtHNZCL7LLV/hDINoWDab0Bu+k9fySCRE6MgOyRcvNxycyzByvPkITl7ZUbzTR+AvlEqKlywBH0oXnEpD2OLm9bQtYS31J/xOlEqIBa6GKS9GetNF480WLLmup0qZtDCF6o6YAikGDvhzcyJrv7Mwm0L3BhOiFdieoGvgRibr6UvxgimGIqX+lRMILnb1dxeSNPsmCdKRYvsy3tKGODCYcMBuqhkT6qWINit7oxoG3NZcwGBJ9OpBOOxI7BQMm/kwOEKxt2CDs3g60JhEGQyJbn8iGyxldkEoBUGeqOdCUPh8KQ+LNxYgYCcSW4uSzC5sPne9UH6P0NU246r7x+dCAzBRn2UwR3SNbBxlGSEZM7vNdXb4hM4VkzRKu1ON2N5Mw9PkcT/D5eOgi3gjDvgs/tbxgAwiDlTRrdV409U/oVLCMXWsf2fi7Sl+SGkOI5zbWUqds/SKGLq4unLGVupZbYRAhXoLT9Y03YPEYJwpdCJp12WUZHm0GYdBS1/TdN7hz3YQuoquoMwmmmi3UJELuCpNoIgtduPFVAPGmvLVuCzWKkAySAPonFIJIJruBD6F3yvJUkwgDh3/vktUbWZGCnWyyH4xGGVqoaYTR3tNy5Xln+YJ0Pq/w3pPwVpPFIktfqx7hQ5u+FSF8nhrChrAhLF/5Es7LzUqkypNwO+sYoEV+hA4EJoh4njkRGqSGsCH8vxKC94+2AfqCuRF6r09/7D0a5jdbNIQFqSG8Uw2hlvqH94/HX8Vgwv4/4MHfh1/FYMIdfjV//KgZDSYc0XSiR81oPOHDZqwAoQO6j5ixMML267um+uyOkNCB/u7+cvOiCIe+p+mTey12HyGkm/aBGb/ufZWiCMf67hSE9BZMCLdHljrTuteMRRGuMziMgN4yovG6AU9/Wt1nxqIIf/9BXfk7egshPCE02fssXfZwz6sUNtL8jkeaemd3MELbng+6zIzTvuRvpcjw2YIQ4owb1hv97GasBGFUs+B4m6xmrAhhYEZWLJO5N1aFMOiN311mxtUwy2OqQ2ijZWjG9/S7Q1WI0EaI1bg5nqtvxioRYjOumRl97YdXizAw44Wbca1pxooRkgRMZkao9/zKEQZmfPOZGUc6rnH1CIN5g2f4Q/8n/THFrUt3Y03x25SENrJPrDf647YphL8toOtbtA5phELxd3qEQ4/w7zej+/k0/1BVCYts7hp74+R30yFsu77fTW0NyYRjoE8o+PhKQnrKBP1CkuONGoSvOJHe2z1G2NeP0/wT4jQJhMSM9CtJDFSlErZHpMABjh4jzBBr+7P0CEmKP2vXU3WEI43wlQ1aDxNmVzqhPenyhq02YzLhB1sGGk+IB9U/+WMSCX9gFJQ1mJC1Mu8gNWMC4Qd3x6DZhHDL4o1AGqhSE/467L4zLn8wmBC82HtWN9WSRDhUhB9jnxnwOMc11yYTDhBa8LDxJtYbFYShATcvc/RmPKEY4bg1o5Swt2NW94/BvFoFwsDhWHDX+CbeKCP84gakVYzVIMRm5D7VVaAqTtjbtagBwZHW2VaEEAeqeNhYDFTFCL9W/Egjfh5FVQjFQBWMzHhLeOA9cB8WHj2H8OD5muKxieyEQqDKd7kzdE34N2UG7A6iQumnEGY4whys7yYUA1XgVUJ4YBt1YC9Wjj2FMEtKLehFhMk1G3FC0Yzr9g1hf8Pob2r/n0K489REN4JdwYbJJwhKCMlRFLw3/lwR8h4YKwR/CmFvpdsNfecvInSAm3SCoJQwMGMYqAr6NCfssyEUduMV1M8ZS/u64kHQHa3uhhe1GeWEOFDF443wt02Sx6x3jwdZ4ycalTVbDFngF6yVx+upCIOJfMuJXEIaTiOfku+rLEKr7Sa9ViKhEG+Ewr+e/MsqjTCKoXgjeW9MIIzijdEQ5lzkh4WUSGgNuRm70pNnkwhxoGojxjC9tWrQKpMQLxUUQ3w6ITkJhZsRH+CrvK5UQqutmKY1CAOfKgwbuzP1cTYlE1rRQL+/NWMqIT5yiUyrp6SVQ+mE4WQNVjdmTCcMxlQyHyYu/sonjFbMN2dD6RCSKlk/CdAIwmDRzHfTRB6zCIf9YUz9DBncoeNzjHqjSYS9s/SHfJwMGdxf3TB8xIdFkwgV3hMEWfLwd7w3sgiSUYQqD7iVKUftl8fvN9SMJhG++3IbTrNtn3/sWCgenLAZTSIMWphErVXmpN9fwLdTOnOzCJ+m3pj1Rv+E6kkYmBGybRh3MK0nIc8tYG5tHQkt60dwbutJaH2M/JoTRhGOJxDOT0YS4lQtitiVHjasTYjmJ9KpzSMMlhFhoEp9fl0qIZrRIALM9musBVWr9/nSKB7H1iRE/HB/p5WtjLMgwt40XMHHIhxahMJWlUYyrqiiCMWcqIE01JREKOxTnbPlXhZMCHmEQ2bGBEK0dONbxroqkhCeeIRjJdvBUBEqtv11VSQhzokKt3Zjh5irCNFEnrqhq0IJBwgNuiozKgjxmb7UgOc7DGgVTijWYB6vzSglvLNITFTRhNgo3Iybq0FVRhhem71eM1TxhLhj8QjHVgjhxwnxKffqVEZdlUCIU9tYDSZYRSdlxwgjA2YPoQgqhVDoXjRQJSHEte+sBz5gQKssQnGOOzMzXhOiAd9tU6WF66okQnGdAuiOqEiIwmRiP1v5iESlEQYYl9CMeFdbIIwMmFCeoasSCQN/IUwtufAzaH2xUuqRs2BClUmIXQbm8wF3OWeE87DaLctukFqlEtrRryxB8En2gD17q1nqpquSCYXUNrAhYGfdckVdlU2IRxieoSj8+/jZaKHKJ8SltGEyjcMm+YyRiiQZQCiktlH5WqXfujKCEGcohtF/mk77PJlBKJTS+qOsoaYUmULIc6Ke/y7kpORXq5ez2hr7h5386vGdbv5y0glz/OWAotQQ5kN40C+vqCjhh9vSrq94ROURWlZbu77iEenmYuRBWIymsCFsCE1XQ9gQmq//C2HSjzvXgdBxEmowa0IIJHWhdSFkRfCyqq+aEAo1mAozVp7QGq79RDNWnzCqwZSnttWB0BqG8XtlTlTFCaMaTD9uxpoQhidegNXt9F8XQss68IrovSwnqg6EVp+fPDO9PuukPoRWLzy7RExtqxOhZf2FqW0vqJ6EUQ0mOPLFeN0Ira+wBvMqJ6pGhFaP12DCrY1qSRgV74EzPiiijoRWb8wH1Tc7t9/lLlk/PIXU7czrSRjVYMJLTnvA5euHnzJFcqLqSBiYUciJqiWhZb1GpbQ1JQxPmaovYeQa15eQRzj8st8jT2EzetlqfKum/tl/Ul5wo0aNGjVq1KhRI2P1H8gIUwAyw6bsAAAAAElFTkSuQmCC;" vertex="1" parent="1">
          <mxGeometry x="769" y="-21" width="64" height="64" as="geometry" />
        </mxCell>
        <mxCell id="obZEuTfXzIU9tXFM8pBn-50" value="" style="sketch=0;pointerEvents=1;shadow=0;dashed=0;html=1;strokeColor=none;labelPosition=center;verticalLabelPosition=bottom;verticalAlign=top;outlineConnect=0;align=center;shape=mxgraph.office.concepts.folder;fillColor=#DA4026;" vertex="1" parent="1">
          <mxGeometry x="316" y="227" width="28" height="23" as="geometry" />
        </mxCell>
        <mxCell id="obZEuTfXzIU9tXFM8pBn-51" value="" style="sketch=0;pointerEvents=1;shadow=0;dashed=0;html=1;strokeColor=none;labelPosition=center;verticalLabelPosition=bottom;verticalAlign=top;outlineConnect=0;align=center;shape=mxgraph.office.concepts.folder;fillColor=#7FBA42;" vertex="1" parent="1">
          <mxGeometry x="315" y="257" width="30" height="27" as="geometry" />
        </mxCell>
        <mxCell id="obZEuTfXzIU9tXFM8pBn-52" value="" style="sketch=0;pointerEvents=1;shadow=0;dashed=0;html=1;strokeColor=none;labelPosition=center;verticalLabelPosition=bottom;verticalAlign=top;outlineConnect=0;align=center;shape=mxgraph.office.concepts.folder;fillColor=#2072B8;" vertex="1" parent="1">
          <mxGeometry x="315" y="290" width="28" height="25" as="geometry" />
        </mxCell>
        <mxCell id="obZEuTfXzIU9tXFM8pBn-53" value="" style="group" vertex="1" connectable="0" parent="1">
          <mxGeometry x="345" y="226" width="100" height="30" as="geometry" />
        </mxCell>
        <mxCell id="obZEuTfXzIU9tXFM8pBn-54" value="" style="rounded=1;whiteSpace=wrap;html=1;" vertex="1" parent="obZEuTfXzIU9tXFM8pBn-53">
          <mxGeometry x="2.797202797202797" y="5.5" width="97.20279720279719" height="19" as="geometry" />
        </mxCell>
        <mxCell id="obZEuTfXzIU9tXFM8pBn-55" value="terraform-azure-repo" style="text;html=1;align=center;verticalAlign=middle;whiteSpace=wrap;rounded=0;fontSize=9;fontStyle=1" vertex="1" parent="obZEuTfXzIU9tXFM8pBn-53">
          <mxGeometry x="3.1468531468531467" width="96.85314685314685" height="30" as="geometry" />
        </mxCell>
        <mxCell id="obZEuTfXzIU9tXFM8pBn-56" value="" style="group" vertex="1" connectable="0" parent="1">
          <mxGeometry x="348" y="259" width="100" height="30" as="geometry" />
        </mxCell>
        <mxCell id="obZEuTfXzIU9tXFM8pBn-57" value="" style="rounded=1;whiteSpace=wrap;html=1;" vertex="1" parent="obZEuTfXzIU9tXFM8pBn-56">
          <mxGeometry x="2.797202797202797" y="5.5" width="97.20279720279719" height="19" as="geometry" />
        </mxCell>
        <mxCell id="obZEuTfXzIU9tXFM8pBn-58" value="terraform-gcp-repo" style="text;html=1;align=center;verticalAlign=middle;whiteSpace=wrap;rounded=0;fontSize=9;fontStyle=1" vertex="1" parent="obZEuTfXzIU9tXFM8pBn-56">
          <mxGeometry x="3.1468531468531467" width="96.85314685314685" height="30" as="geometry" />
        </mxCell>
        <mxCell id="obZEuTfXzIU9tXFM8pBn-59" value="" style="group" vertex="1" connectable="0" parent="1">
          <mxGeometry x="348" y="291" width="100" height="30" as="geometry" />
        </mxCell>
        <mxCell id="obZEuTfXzIU9tXFM8pBn-60" value="" style="rounded=1;whiteSpace=wrap;html=1;" vertex="1" parent="obZEuTfXzIU9tXFM8pBn-59">
          <mxGeometry x="2.797202797202797" y="5.5" width="97.20279720279719" height="19" as="geometry" />
        </mxCell>
        <mxCell id="obZEuTfXzIU9tXFM8pBn-61" value="backend-code" style="text;html=1;align=center;verticalAlign=middle;whiteSpace=wrap;rounded=0;fontSize=9;fontStyle=1" vertex="1" parent="obZEuTfXzIU9tXFM8pBn-59">
          <mxGeometry x="3.1468531468531467" width="96.85314685314685" height="30" as="geometry" />
        </mxCell>
        <mxCell id="obZEuTfXzIU9tXFM8pBn-62" value="" style="group" vertex="1" connectable="0" parent="1">
          <mxGeometry x="557" y="204" width="100" height="30" as="geometry" />
        </mxCell>
        <mxCell id="obZEuTfXzIU9tXFM8pBn-63" value="" style="rounded=1;whiteSpace=wrap;html=1;" vertex="1" parent="obZEuTfXzIU9tXFM8pBn-62">
          <mxGeometry x="2.797202797202797" y="5.5" width="97.20279720279719" height="19" as="geometry" />
        </mxCell>
        <mxCell id="obZEuTfXzIU9tXFM8pBn-64" value="&lt;font style=&quot;font-size: 11px;&quot;&gt;GitHub Actions&lt;/font&gt;" style="text;html=1;align=center;verticalAlign=middle;whiteSpace=wrap;rounded=0;fontSize=9;fontStyle=1" vertex="1" parent="obZEuTfXzIU9tXFM8pBn-62">
          <mxGeometry x="3.1468531468531467" width="96.85314685314685" height="30" as="geometry" />
        </mxCell>
        <mxCell id="obZEuTfXzIU9tXFM8pBn-65" value="" style="group" vertex="1" connectable="0" parent="1">
          <mxGeometry x="516" y="255" width="123" height="30" as="geometry" />
        </mxCell>
        <mxCell id="obZEuTfXzIU9tXFM8pBn-66" value="" style="rounded=1;whiteSpace=wrap;html=1;fillColor=#ffe6cc;strokeColor=#d79b00;" vertex="1" parent="obZEuTfXzIU9tXFM8pBn-65">
          <mxGeometry x="2.8" y="5.5" width="115.2" height="19" as="geometry" />
        </mxCell>
        <mxCell id="obZEuTfXzIU9tXFM8pBn-142" style="edgeStyle=orthogonalEdgeStyle;rounded=0;orthogonalLoop=1;jettySize=auto;html=1;dashed=1;strokeWidth=2;strokeColor=#A9C4EB;" edge="1" parent="obZEuTfXzIU9tXFM8pBn-65" source="obZEuTfXzIU9tXFM8pBn-67">
          <mxGeometry relative="1" as="geometry">
            <mxPoint x="277" y="-196.33333333333326" as="targetPoint" />
          </mxGeometry>
        </mxCell>
        <mxCell id="obZEuTfXzIU9tXFM8pBn-67" value="self-hosted runner" style="text;html=1;align=center;verticalAlign=middle;whiteSpace=wrap;rounded=0;fontSize=9;fontStyle=1" vertex="1" parent="obZEuTfXzIU9tXFM8pBn-65">
          <mxGeometry x="3" width="119" height="30" as="geometry" />
        </mxCell>
        <mxCell id="obZEuTfXzIU9tXFM8pBn-68" value="" style="group" vertex="1" connectable="0" parent="1">
          <mxGeometry x="567" y="233" width="100" height="26" as="geometry" />
        </mxCell>
        <mxCell id="obZEuTfXzIU9tXFM8pBn-69" value="" style="rounded=1;whiteSpace=wrap;html=1;fillColor=#ffe6cc;strokeColor=#d79b00;" vertex="1" parent="obZEuTfXzIU9tXFM8pBn-68">
          <mxGeometry x="2.8" y="4.766666666666667" width="77.2" height="16.46666666666667" as="geometry" />
        </mxCell>
        <mxCell id="obZEuTfXzIU9tXFM8pBn-70" value="public runner" style="text;html=1;align=center;verticalAlign=middle;whiteSpace=wrap;rounded=0;fontSize=9;fontStyle=1" vertex="1" parent="obZEuTfXzIU9tXFM8pBn-68">
          <mxGeometry x="2" y="-0.8666666666666667" width="75.85" height="26" as="geometry" />
        </mxCell>
        <mxCell id="obZEuTfXzIU9tXFM8pBn-74" value="" style="group" vertex="1" connectable="0" parent="1">
          <mxGeometry x="470" y="326" width="84" height="26" as="geometry" />
        </mxCell>
        <mxCell id="obZEuTfXzIU9tXFM8pBn-75" value="" style="rounded=1;whiteSpace=wrap;html=1;fillColor=#d5e8d4;strokeColor=#82b366;" vertex="1" parent="obZEuTfXzIU9tXFM8pBn-74">
          <mxGeometry x="2.352" y="4.766666666666667" width="63.168" height="16.46666666666667" as="geometry" />
        </mxCell>
        <mxCell id="obZEuTfXzIU9tXFM8pBn-76" value="terraform plan" style="text;html=1;align=center;verticalAlign=middle;whiteSpace=wrap;rounded=0;fontSize=9;fontStyle=1" vertex="1" parent="obZEuTfXzIU9tXFM8pBn-74">
          <mxGeometry x="2" y="1" width="63.71399999999999" height="26" as="geometry" />
        </mxCell>
        <mxCell id="obZEuTfXzIU9tXFM8pBn-78" value="" style="group" vertex="1" connectable="0" parent="1">
          <mxGeometry x="540" y="326" width="95" height="26" as="geometry" />
        </mxCell>
        <mxCell id="obZEuTfXzIU9tXFM8pBn-79" value="" style="rounded=1;whiteSpace=wrap;html=1;fillColor=#d5e8d4;strokeColor=#82b366;" vertex="1" parent="obZEuTfXzIU9tXFM8pBn-78">
          <mxGeometry x="2.6599999999999997" y="4.766666666666667" width="71.44" height="16.46666666666667" as="geometry" />
        </mxCell>
        <mxCell id="obZEuTfXzIU9tXFM8pBn-80" value="terraform apply" style="text;html=1;align=center;verticalAlign=middle;whiteSpace=wrap;rounded=0;fontSize=9;fontStyle=1" vertex="1" parent="obZEuTfXzIU9tXFM8pBn-78">
          <mxGeometry x="4" width="70.15749999999998" height="26" as="geometry" />
        </mxCell>
        <mxCell id="obZEuTfXzIU9tXFM8pBn-81" value="" style="group" vertex="1" connectable="0" parent="1">
          <mxGeometry x="618" y="326" width="113" height="23" as="geometry" />
        </mxCell>
        <mxCell id="obZEuTfXzIU9tXFM8pBn-82" value="" style="rounded=1;whiteSpace=wrap;html=1;fillColor=#d5e8d4;strokeColor=#82b366;" vertex="1" parent="obZEuTfXzIU9tXFM8pBn-81">
          <mxGeometry x="3.164" y="4.216666666666667" width="84.976" height="14.566666666666668" as="geometry" />
        </mxCell>
        <mxCell id="obZEuTfXzIU9tXFM8pBn-143" style="edgeStyle=orthogonalEdgeStyle;rounded=0;orthogonalLoop=1;jettySize=auto;html=1;dashed=1;strokeWidth=2;strokeColor=#A9C4EB;" edge="1" parent="obZEuTfXzIU9tXFM8pBn-81" source="obZEuTfXzIU9tXFM8pBn-83">
          <mxGeometry relative="1" as="geometry">
            <mxPoint x="251" y="11.5" as="targetPoint" />
          </mxGeometry>
        </mxCell>
        <mxCell id="obZEuTfXzIU9tXFM8pBn-83" value="terraform destroy" style="text;html=1;align=center;verticalAlign=middle;whiteSpace=wrap;rounded=0;fontSize=9;fontStyle=1" vertex="1" parent="obZEuTfXzIU9tXFM8pBn-81">
          <mxGeometry x="2" width="87" height="23" as="geometry" />
        </mxCell>
        <mxCell id="obZEuTfXzIU9tXFM8pBn-84" value="2" style="text;align=center;verticalAlign=middle;rounded=0;labelBorderColor=#FF9999;labelBackgroundColor=#F8CECC;glass=0;strokeWidth=4;textShadow=0;fontSize=16;fontStyle=1;whiteSpace=wrap;html=1;fontColor=#333333;" vertex="1" parent="1">
          <mxGeometry x="240" y="207" width="60" height="30" as="geometry" />
        </mxCell>
        <mxCell id="obZEuTfXzIU9tXFM8pBn-85" value="4" style="text;align=center;verticalAlign=middle;rounded=0;labelBorderColor=#FF9999;labelBackgroundColor=#F8CECC;glass=0;strokeWidth=4;textShadow=0;fontSize=16;fontStyle=1;whiteSpace=wrap;html=1;fontColor=#333333;" vertex="1" parent="1">
          <mxGeometry x="518" y="203" width="60" height="30" as="geometry" />
        </mxCell>
        <mxCell id="obZEuTfXzIU9tXFM8pBn-86" value="5" style="text;align=center;verticalAlign=middle;rounded=0;labelBorderColor=#FF9999;labelBackgroundColor=#F8CECC;glass=0;strokeWidth=4;textShadow=0;fontSize=16;fontStyle=1;whiteSpace=wrap;html=1;fontColor=#333333;" vertex="1" parent="1">
          <mxGeometry x="564" y="355" width="60" height="30" as="geometry" />
        </mxCell>
        <mxCell id="obZEuTfXzIU9tXFM8pBn-87" value="6" style="text;align=center;verticalAlign=middle;rounded=0;labelBorderColor=#FF9999;labelBackgroundColor=#F8CECC;glass=0;strokeWidth=4;textShadow=0;fontSize=16;fontStyle=1;whiteSpace=wrap;html=1;fontColor=#333333;" vertex="1" parent="1">
          <mxGeometry x="803" y="22" width="60" height="30" as="geometry" />
        </mxCell>
        <mxCell id="obZEuTfXzIU9tXFM8pBn-88" value="" style="group" vertex="1" connectable="0" parent="1">
          <mxGeometry x="673" y="-10" width="100" height="30" as="geometry" />
        </mxCell>
        <mxCell id="obZEuTfXzIU9tXFM8pBn-89" value="" style="rounded=1;whiteSpace=wrap;html=1;" vertex="1" parent="obZEuTfXzIU9tXFM8pBn-88">
          <mxGeometry x="13" y="5.5" width="87" height="19" as="geometry" />
        </mxCell>
        <mxCell id="obZEuTfXzIU9tXFM8pBn-90" value="terraform state" style="text;html=1;align=center;verticalAlign=middle;whiteSpace=wrap;rounded=0;fontSize=9;fontStyle=1" vertex="1" parent="obZEuTfXzIU9tXFM8pBn-88">
          <mxGeometry x="14" width="86" height="30" as="geometry" />
        </mxCell>
        <mxCell id="obZEuTfXzIU9tXFM8pBn-91" value="" style="group" vertex="1" connectable="0" parent="1">
          <mxGeometry x="742" y="-41" width="108" height="25" as="geometry" />
        </mxCell>
        <mxCell id="obZEuTfXzIU9tXFM8pBn-92" value="" style="rounded=1;whiteSpace=wrap;html=1;" vertex="1" parent="obZEuTfXzIU9tXFM8pBn-91">
          <mxGeometry x="3.020979020979021" y="4.583333333333334" width="104.97902097902096" height="15.833333333333334" as="geometry" />
        </mxCell>
        <mxCell id="obZEuTfXzIU9tXFM8pBn-93" value="TERRAFORM CLOUD" style="text;html=1;align=center;verticalAlign=middle;whiteSpace=wrap;rounded=0;fontSize=9;fontStyle=1" vertex="1" parent="obZEuTfXzIU9tXFM8pBn-91">
          <mxGeometry x="3.3986013986013988" width="104.60139860139861" height="25" as="geometry" />
        </mxCell>
        <mxCell id="obZEuTfXzIU9tXFM8pBn-95" value="" style="rounded=1;whiteSpace=wrap;html=1;strokeColor=#990000;strokeWidth=2;" vertex="1" parent="1">
          <mxGeometry x="878" y="242" width="330" height="192" as="geometry" />
        </mxCell>
        <mxCell id="obZEuTfXzIU9tXFM8pBn-96" value="" style="rounded=1;whiteSpace=wrap;html=1;rotation=90;fillColor=#D5E8D4;strokeColor=#6c8ebf;" vertex="1" parent="1">
          <mxGeometry x="872" y="303" width="150" height="90" as="geometry" />
        </mxCell>
        <mxCell id="obZEuTfXzIU9tXFM8pBn-97" value="" style="rounded=1;whiteSpace=wrap;html=1;rotation=90;fillColor=#D5E8D4;strokeColor=#6c8ebf;" vertex="1" parent="1">
          <mxGeometry x="970" y="304" width="150" height="90" as="geometry" />
        </mxCell>
        <mxCell id="obZEuTfXzIU9tXFM8pBn-98" value="" style="rounded=1;whiteSpace=wrap;html=1;rotation=90;fillColor=#D5E8D4;strokeColor=#6c8ebf;" vertex="1" parent="1">
          <mxGeometry x="1067" y="306" width="150" height="90" as="geometry" />
        </mxCell>
        <mxCell id="obZEuTfXzIU9tXFM8pBn-99" value="7" style="text;align=center;verticalAlign=middle;rounded=0;labelBorderColor=#FF9999;labelBackgroundColor=#F8CECC;glass=0;strokeWidth=4;textShadow=0;fontSize=16;fontStyle=1;whiteSpace=wrap;html=1;fontColor=#333333;" vertex="1" parent="1">
          <mxGeometry x="865" y="251" width="60" height="30" as="geometry" />
        </mxCell>
        <mxCell id="obZEuTfXzIU9tXFM8pBn-100" value="" style="shape=image;verticalLabelPosition=bottom;labelBackgroundColor=default;verticalAlign=top;aspect=fixed;imageAspect=0;image=data:image/png,iVBORw0KGgoAAAANSUhEUgAAASwAAACoCAMAAABt9SM9AAABKVBMVEUAnPn///8AnPcAm/sBnfqn1fYAnfcAnfUAm/31//8AmvYAnfvu///x///5///8///n///f//8AmfIAnvPh//8Alej//f8AleUAl/UAn/QAlvD///zY//8Ame8AnO4Bmv6K0Otds+sAluJguu3f8fro9PoAmuaD0vfL9f+79P84qNnV7PmLy/HC4/UAlfac0/MqpfQAkNfN//8Amd0AjtxTrfNuvuYdntyP1u2HvuTN9P+53viUy/J2vu2DxfF5xflatfQRpe1Eq+phuvEAkv1DyPyZ+v+q8f1nxeuk4/lCquVWtuCk2fIAjdSv7v6b6fZnxt+6/P8Mj8h4xOcwotq8z9lesduKv8y15ep/2/lo1/tAuvKP5/xRo8ONyuNOudw5mcas1ORx3PXod9OmAAAbHklEQVR4nO2di1viSLbAQypdlVRCEhIiIZAEQZG3SGjxamsL7twW7GGmW647PT07s7v//x9xTwVasQeUlyLOnM/PVlqS1I9T51UvLvK3zCzcuh9gk+RvWHPI37DmkL9hzSEvHJYm7ZRP3rw7O73YDuXi9Ozdm5Pyzu5anublwtJ2yx/fn3fqhFLbpnatJoaCOA579bfn79+Ud7VnfqQXCkuqvttue7aIfEopx0RGMghCsiAISERIdLz2+bvqs6rYC4Sllt9stw1KkpwocD6PMaU8jzlOGImMmIb5CBNQufz2fll9rid7cbCk/Yu6b/OCLCSTMkfhiwON4phOjWTYHX0R4STBwMu72H8m/XpZsKSTXN4GOqEW8Rw3pMPdFzQUjr0eWjFquxcnz6FeLwnW7n7HM/hvvU3gJpH6jluoZBwPHfXtu6dXr5cDa7fSdgwe8AAmbk5YPM/5teTZzhM/4kuBVT7NWxSBZQJ3xy0EiwPrdVp+0od8GbB2K8S2OcJMEeXmgMWNwzIM6tYrT9kZXwIsdb9ucxwLD27pTIXFMxnXLbD0wx/YN1mm7f2nM/UvAFZ128Xg++5BmBnWfREEQrzt6lM96dphqRXLJd/BkheFRQjBxPDOpKd51nXDqoILxJjnxyEwRIvBSiaxIIvUrp88ycOuF5ZagfyPBQurgmUCLB5SR1p5Csu1Vlg7HRvy5DAefxjC3IJqnSeIItYJ6yRkNYTFrRiWSOtvVv7Aa4T1zvN4VoB5Elg+wbiy6ideG6zdnG2Y+KlgyaJMiJNbcYS6Lli7565BxmGtWARRTibzK6a1JljlDsWYhQzfYK2cGLhRXnB7K82t1wOrXGcVUNbzngwWx+J5bLRXGc6vBdZOvSbyw0j0SWGx/Dq5Qt1aB6xysoZk/OSwWKgrCLS+uoBrDbB2277PoTvNkp8MlsDjZNLtrEy3nh/WbqeGHq1TrVAQ6qzKJz47LGnb4B4v6q1QMEbnK6L17LDOTH6GCugKBQlIvFjNsz83rIrBo+eFBf3Qr60m83lmWCceQnTl4fqDQigShORKClzPC2s3yXzecFTwWYXWV+ESnxXW7rk9Kuw9MyzZrnVWUGp+VlgVg1sPLI661v7yz/+csKpmaNvXAcvwTHP5LPEZYe12OGFNsGTKy1x76bL8M8Kq2Lz5VKnNLGIvHT88ESx1d2enXC7v7Eq3UxmrecqbT1ZhmEFoftmO+ASwtPL+6UWnXcek3u5sX1RGUxm3XYrJOjWLs8+XbNmqYe2+OU+6DjV4DJE6hwmp1Ryz864cOaGY59cKS5aNJQd8VgpLK591DF+kHAJMJi9gTDASRWoYyfO6gCmPb2E9Y7rzTQSC28tl1KuEVX6fd034ADmeqRSbdsC+YfZPOImWUnldPZAJT7C7XLC1Olg7Z4YBWNiAFs+HnMYkrPRxsvwUw15zwDLaS2U9K4NVrdvhBOzhjCkejwn/QmCZPDWWCh9WBEs9c2p+OHV42M/4e/JSYFHR9pZJEVcDaxfigtEEz5FRugdrNDgxgiWvrRvCI9rLWK2VwNrp2OuMn+aSZQryq4BVbntrDTbnEnuJWGsFsHbfcnidacxcItuddcLaPTfCZVqbAYsj3uIZ4vKwLigh8uZ0Q9M9Wx+sEwiv+GF16g7Wy8UGn+rida1lYZXJbZSwEbCQzzkLj/QsC+uC8hsFCxJ4eromWCcm2SxYnCmghWsPy8FSO5AObhaspIwWHnFdDlbV4J57MH4Fghb1h0vB0s4NeQNhcfV1wKp6FG0iLLpgVWspWGeGLIbrujcMlv3x+WFpbYjx1t3wRcRe0GgtA6tMn38cfjVyvlgQvwysfftuW4GNErpgKX4JWNoF2lBY3IKVhyVgqW+5TYW14Gjr4rC0srexsGrvnxVWef+ivpGekC0mkP23zwZLqp62LZeGG39toggCWiyGnxuWtlPpeIZB2DL3zYQlC4tObJsXVvk0T4kgm2wrhg2L229FkFF9oSrNfLCq5zYl8MnISYzXMEy6GpGhG5KFlorNA2u3kmQ3YzvJbaQPHAnbc2qx2bizw9JOvNooVpA3GhZb4UoWqv/NDGvn1LnNbjYbFjw8NheqO8wKq9x2KI9fBaxQsxaaHzIjrIrl8Jjw4UrBTYfFHv4JYanvaTg97SUPRMwhDFZukd1NZ4G1e2F4bG7o64GFCXHbpyfzTmybAdbuW5okPvdqYLEdqCD/QJxZf1+ea3vmx2GpF/8QCeFfl2axPYdlQRSTuXkCrkdhqR3qI4OY4eI37jWwkoewECS3suzXerPjegyW9p7DY0oV/rjhIo/V4JAvovr7WRPFx2BVKEb864LFjcMSkUxpe8YQ9RFYb4hBbO71wmKCZGzOtnfUw7AkzxgtKXlFsMZL4TwhnOgL2JlpD5YHYak5B9AQzHbS5m4XA3x3b97YtGrNuGYxWKIMjXBnsPMPwto35FuZemvTJJuvbWzp5uMjPg/B2q3b6FFY4IfZAornbNeTiGx7j5r5B2Bpp+7dwomp4RV1X4dmgfl6lNYDsMp5w3gUlkzzP3hkQ+sP9wRhkn+kJDgdlrbtIPodrPEOydZgyqLb+t8fLKZaorjhXRHJnG09XJqfDqtKbN/nps0VBe8o85zt9D58aJn1NpFF9ArUiz4cQUyHdW4jcTosxM6/wYlcQb/M5n+4dGQqr2Pd86rFfnCnramwdhyKRiceTILFeqOTvdajxwdm8CEdmGxfrHU2czXCo3eLwKo8AIttmIqQe7CvR6IZj3Ri0b28aW5+PQKsi48f6IjTYO12KAWjPbzEPVgyW7LKJXmn1Y1qW4WBaVWkVLqUNekaG7kiEQTxHw/MCpwG68Tj2VKvSVeEQBXxXrZXjEqaspd1gmIqFe22vHsb4G+ogJPC0yP5abByPGWHvk26HhKIaWZzDSmVSqU7htOLpyQ1dpVY19rnFcsDM2ymwFLr/NQNMpFoO4nrdDSVikgZo9b8KKXUlFQMaq8D1gMTv6fAqppTYYHNMg72dEkFWLGeXQuOtVRkK6Wf1thuM88M6ynuZ/emjfpMgVVx6cQD4Ng37La6SgS0KSV1f+SdQ30rpakprdAy2JYNk26P7vdoFLaR1X1EBF5k/uZgdgWD5/jvM3g5LOVxS65iMKZlPZNhaRfGsOBw/ypyeCyj1+pLW2CvUlr6yjMTXeiPqspsfBb58qQwnp1NOL5VD6KYk3ksYAGCXtGfP+QgIkeoy7Pdbe97FYFSgEWXXMtAp20dNRmWWhcnHeQiQzOxGRwpkQj0QTX6U4u4ATNeqqaltvRBAhM8Mem5n4ibfBiCuAmXGry8gGYxVRVdy3Kcb3uRjISnBIOfkZebwYmmxVqTYe0Y4sQFTNBtSOIwDn+RAqLxnifkLxUNdIy9oPVbU+oPrpWwrNvf+ETCshGklV+u8i4vPFzemWKTZNntZfr9PQvfhwVqYVkJQ6bsA5qRzZ8sn1+bEsZPhnVSQ5MMPEIi7zb70VQISypmCQl+UlNDUbX4YQJPeELZyO3t7eUcNqeEhf/OJfz61W1/iDU6Fi88UN9hO7Hc/jI+D0VAbq+hK3oRYNGx041EAefh6l8d6OR/gjUd3neweLszeaB6Mqx3PsdN8oZINhI5RR0qUvzQJVYpDR1SYwZMVaPFljEhjJedjB6NNjybE7Aom16+EZXSP2dbn6Kxrx7Hm2AdRVGG3BI+DHColHUyMGQo3NeGEvAAhD1ICIsnmKVa2AiKqt7NXLrZoNOmtxZR5pxcLBrt5x3KI3F4NhR7bITZ1hO8jIYTYdnIC8AM/wSJYXx4DxbyJvfDybDe20icYOA5JLitwjAd0KR+QEh2j4VbWiSlgajRTNaYBGsf/kjJOQLGomAeXEqRlP6zlc8dXQaeLBs2uEoRARTeZju6udAGsPoGG/8Ej2KKvkjYHsPhSDI2scwTeIwrXf34OZskuU+frlg9Vx7uEIQsdmJfrGTZkNmGqiRwFPxukrDLiUjAISwfEfDEWBYx+nZA4hgw0Z8Sak2GdTEZFhjj5p4yVFFNuc6b5KDI0GkRbSiNwURYR9BxpS6Yf2gmDvpwAf2a8qbFTmBlnzIhBpVF3wBzz7IDHvm26/HQp3gMDYJnB+VjiEDtPCpypiw4OUX/Oev71n40zmD5w4BYFg8aanlXyiRsGzLbcMszHsMl4csWfd82sMBjymBh6hJBgI/CF335Pix4lMkrMCbC0s6naZYH3S78ky21GDiYXsS37mCBGese/Nley9aRopTVdM9lW4vgi5j+f5p+bWPX8mqiIDiml8gHoAqO5RFqegYmXj57EHiO45qA0c2y/wVlqjmJg6AVJDwPU+dUUq4PHKv5LqLfOJbt0yEs41BRbn5RCwPbR46TSCSy2UQ24RpOImtB14QrWwZnwJW9bJB3XS+Rzedd+LTuuwnk1yfGpTPD4qEfcHIA4WgoKQniVrGW00fvGMKKxK4M+fuQEDRLif1Th5ybEBFZR9Ff/qnEoRteHn2xEOcGV0f9YvFLJ//rl18Hue6Hr9lsCRxdv3uat1zDCHLdYrG/Vydm0Dr9CD/u97LexX4VsozM/rv98pZU3fvSrg27kpDvRgufM0r6Z8cX83uZ/f39DHzba+3tXwYmEYyLzJeO09nbz32+LP7Wzg8u4dbdi+8CEEztyZt8T4b1FpT4O1jseoaTS48KGKl0wILNbFfRWN7zDZZaPGCJ0n3VAs1K/+sXqdCiWDQGjejl70rs50TQl9J53h38pkuKrsfPgk/6L9cNRbn8vJeORvWYEv/Qs5z8h7iix/TGV5L4o6izl6X03sFvurq1pSm6EgWljsYbOVsMW2sP0srRj6V0tNv0UbuohCJJDbhpsZXEsrWn6Dknp0sff49LjdKgDzeO6bHLvDlu4TGhk9fYTYFFRyvF79SD9X0335dG5l3fS/AcpV6rK6naHayIdBngcafNmgDKlP73ZVQ5BbeV/V1PH1QAlpXvRvSs1/qgRI+vDw9/+iEoSjvHjW73KqNLx5XD6348WswnfpKUjzel0y8dq9NQ9I+Hl0dxKf7HVaaqqtVM5kvmOBX9BbTFDV0atipgwrygr8ZamMvvVSp7md93Vf3sx2Op2CIcTexJSs66iW7tpov7Rzf9aPy6dNVXYocWGouNMZ6yxm5GWDJixta91iMj814YODw4ezPbakgQvt/C0ooDQ/wTLCld+pyOfvQEMuhHPzZHsLT4QXYvrvQHWSsftIPClta4spp/NNRj6GmJwU+qfj0oRo8/Z13HJYmuFN0/aFrZQ10qDg4Oo/rPgec191X9JuG54daePGkVGZR8RpEOXZoAo5T48SYq9VsHBXjdFLgRLCUS7bYSwZkS34MLlorRD01/LOsCWM7EsHRaN/xeswQZES9IA5Ct8C8yFqLUZ3MzSwVVU29hRaSj5ngXDGFlAFYAlqTnJP6IpUvNihQfwgpaRTUWeBCZIhQUNemwKTpHunLqeAImPUXrQ0MK/wpczjZ6abX/IwXn/2MXtKcJsA4dBFGJpF+5Ik8YLM79IyZlApIfwN9mDZMksVtqSMeBYx2Pw8pBVx64XL4YKQaWlf+c0dJt35fvwfqf5WCJODiCLhfC2lJaLsSBPjhzN3sZ05hDHOkceD0jNABoTLOU9ADC1+iZlT9S+nmrIukjWKW02k1A8gtRT76oHfdcHjQo3rPBE9jZglT495ESTR9dgWvMxaU9B/w8htBOOQRYyqEFrnRfil+5PjUBFjOOUf0mCFqfq1J82zU9YgTQx3JWzQk1C9/B+nAgoE5BOz66vs78fqLBHceM1nywIufwVPLt3u3Djig622mmPltbEGF+tDBk9hAQQ/qfzTCXCPnO8L1SNyCiDMnsLWkGq2Qc9KPH2U5BubacW1gHV3r0d4fNZAo1qxgg3CyoxwHzL0a2zxTyKK0o6e7X5qkinVnI97nEoRLdcxisBI8ZrJwN8SZ8ce5BQ4pWq/1+dUeL7iVMz2O9/LLJ2xaDBeFsAkDnrCtF7TZl7iqtRXUFvATcIOeSexnLPLDe13z5e1i02ZVYpB7ZSqnpEj+qUAkQOeWP9DA5DN+aiuhXCVA5+dYIsNChUSLNw5h+eB1rtIxbWLGDGz3adRD4DsRBalDMi6JV1NI9ysu8F4BmDbygdHSsKI2rQ0Xaa1KIIa1rhWmWpFwmeMFisGo+E5FmD6Mqaz60X4IwkJOzhzGl2zQEIwGwAiQKTCtziStd6lqicZVWy9eVs7NKpXLZdvE9WO4csM4MQr+H5WzHwoQ5jD2zo8WG4WRWO+iG2fS3TtwPoFOI38OyWgXpP1W9mxecSjSEpcYOSjGp2jQg3eEgj5JCWF1NL7lE5rxWDFpoUzM72I9GuzcxqdukBkXNYTdksEBp97X4ts3cr4/kfF9TPh4dHWUyRwUVGP6D4W7B1akVwpKF5p4aBc0CWE2R9hpq9cBhYjVZuWRRWG8o5GD3YTng2oewtEj8yvlWA2DlTtECL7TFXCJDFdnSM03XFm+rfQxWukSIlYlKSnrbkb/BkmKtVl/Vc1lXcIzQk+V90foZsr6sRW3WsIxlUErdZkzq/7sAtsxysRMca8dtC7rhZYICLFU5dGybDdqRXlwrHjQTlu00cypcJHschduZnutYVTV2Y4sUPC7TrDjAqtEs2IGcSzlKLMMedaVFYFVdSDjvw7Ku9WEpJrKldbP26LJsoSOYl8TVMZgyBiuV2tqCKMcSxduSyhCWgWkHVLOfhRYyWC7ASg8SkAKkM4PB4PIrOMZiIIouBBfKx1JrcJ2OFlqdvVLeCqALdsGbSsc3g0HuRJKuHftQ0UNYFUnqDjptl+cEMEhSpml4Rk028mlwDhlJ/c+/ejc3pd5BRlGKpWDQVbaYZjFYIp+AIKRw1cq2Sl++OpAuLgpr1+PvqSXBZFBQU2HUAK4w595mgOFcNsw3b+Kj4CHF8sZM00Z3eanD4izw881uRLpOEDMR2iz2wbbcBISgSrrQiF1+Bs0KfNFO9CDyTh+n9Wgj1+w10sVuMaamr/IH3ZikF4vwrZuQUY7BkjljO6ZJjU+XLjxqUIS+53KEKaMFxH+JRSJRPR6PxT6VIIKQ0sVGo6opOeeGdUOectkjRYsV+oV049ISx6bsyRCSzAFLfUvHjj9DHCGhdR/CgujktiYHmgWJFWhXggUQo5KZpsW2HU64g/Vr8cPAEVHiqtjveYT3Lguf/uDdL4VPgedmc8VYLNbofw1+Kv6WB3dnWK2jYjrWKHZ7Lm7/lk7H0oUuRKlecFkspNOF4mHAy+ii+OkHF9xo/rIYi3/6Sn2efv1Q6AYGChMf96pYKBaOmRQKhX4vUWKX/HBzWSx+dXqfil+ahBdr1nt4NRY73oNACI/DEu3Zg9JI5KJ2V1YGDeXcHrPuw6wGApzb6UVyuPoQeqIZHEW1W1hSvzkWt/DtVicPRszNt9p5D0JZ+N0TxXavk/cgqg16V7mOZ+B6u5OkSDRcN9+5uip1soYsePle7irXC0yECGe1e/A6pNdw+2Sn13bZ+e0evLvUFkWPr/c67XwSh0fDG0a902bSaQ3gu2tbras/vgbZdquXd/O9dt3FguzXnGwpl+u1svAJ3odFZ093wMLb4zV40W7/pCt6XA+lH3C3hXO2+BDAQdrl/Pgf7a4Yqx9a7i0sbBqux/t+zaYGTwzR9eDhBB6CRvCCAgY6BmVVJniBp7yXFGTsMpNrIMTD//HwbsJKgBjZ1LN93oOo0a8Z7E1gLcABeEkkeOD0DJwkQjK0C4ij4V7+xHVYbC+yCpnHDj1gpwxTeJZwl3HquEwIz4/vMAewyOyJdCSy442N7gAZ7+v29naptN3r9bZLFiLmnc0iLPjLd7b/p3oHS4UI6bYMKHNU5KiPIEaSIdLGoj2cmMMKxSKCEIsaHOIBHAG9wGGhFHQD2ZBFyOGZISRcl+SHOQUWRJvNJRd9k0ICRiCe84Vwrn74fpNDyeFqPwyhGtxAkG1MBJmYJg59kcAsEnXZSXgIEjZ2MglIOK45DmuOEg1Ihw7bGbYKUnrXsQ3DZbaTmhzcm5WA4AXLaga9w0y3WIjpt90QwouUkrkbzmGjQhARyiIb7hvNW2Jlc4FtYM2CdwqPCiE/NtlFWe2d8sPbs16OCVuxENIK13Nx0MbhRyjz8AaO+V1QJQHJxMPhBdkBTvywUMQAYBzC4tmWxmLot3iTR+FwyO3neW/aIvzd29mLfxF2/BKl4yfxit8uwxpKKStmBsH24V63mI4rUTaE8S2VHg32QIr4DJPbnmjiDp2jrAxSNu/DGp/Mhr16++vlbx/AlYAJU6ISSDQU6U7iv20sLJ7SeQYs2FzlabBkr/711//+979HoWSmyn+TSPhuSdHq5UlgYeLOMxQG8tGeDEvmSNIE755PhGJZCYv947qQYg0lfNUD38NtKCzTmGuQlamWC9nw8Lgq+W4RK/sBjKnM5nXcrevh73bPH70CJpch2sytyDg61/A9k4oLDjmENTYLd2yATR5h+IYjHF0ZbZExmta2ofu2IXOuiSFMdtpecniAAD8R1jdKD8DaUM2aelrdA2t3Kl5yOPTwEKw7eT2w5pzMFspumx+WhifDEh6HtYHdUOYE++20yd0PrTfcp3eaxXPynwbzp91vg1daeITjavNOwB3KuR1e4RXMb59VIE80ph/M8yCscjvMwv46sJDPY2/6osOHV99/dL6dufDXgMVhk+amb0/zyL4O5/QvBUvAwuTizEywym2DkL8OLI4+eBDpY9urlJNcEv8lYLFG0lruIRiP7nL0hv5FNCuE9XbBZb/fZN/9y2gWNRZdUD6mW/SVwwoHk6GNj51eNMuefxWC0GuGxUZ2BIFg57ENVmbaTfKE+Otu0FNKeOAuJg9Eo/PAilST9rpb9JTCypxGfbmNe8ak3Kmtu0VPJGwqKjGJMcsZILNuF6y9X3rN4wsVTMyk6Z4vvdnYPVondSOcl0PYHV6NvWcDvKBZpyvYxu6eSGcmm7mJX1WMisBeOZ0ZNzyfZ/N8rXxuspXJrwmWzBnts1VtvfkdrmrPdekrgoV8+2L2ExrmPh2lepqk4aTzTTX3409tm6fzHGaxwLk75Uqbs2u1cAGHIAhI5uimCFub5bOFnAI1bNuon5VTj7d3KViM17u3nu2zuT8Aa4O2Ww6fVRRF13Dc+ll1ri27F4YViai71Uqu0/YIW3C8boWZWSCzMQxM6tunb55q8/ypIu2UT07ebJicVMu7Cx7ovuwJ5X8p+RvWHPI3rDnkb1hzyN+w5pD/B7yEL/jcwsQmAAAAAElFTkSuQmCC;" vertex="1" parent="1">
          <mxGeometry x="996" y="179" width="105.36" height="59" as="geometry" />
        </mxCell>
        <mxCell id="obZEuTfXzIU9tXFM8pBn-105" value="" style="group" vertex="1" connectable="0" parent="1">
          <mxGeometry x="905" y="247" width="100" height="26" as="geometry" />
        </mxCell>
        <mxCell id="obZEuTfXzIU9tXFM8pBn-106" value="" style="rounded=1;whiteSpace=wrap;html=1;fillColor=#ffe6cc;strokeColor=#d79b00;" vertex="1" parent="obZEuTfXzIU9tXFM8pBn-105">
          <mxGeometry x="2.8" y="4.766666666666667" width="77.2" height="16.46666666666667" as="geometry" />
        </mxCell>
        <mxCell id="obZEuTfXzIU9tXFM8pBn-107" value="Frontend Subnet" style="text;html=1;align=center;verticalAlign=middle;whiteSpace=wrap;rounded=0;fontSize=9;fontStyle=1" vertex="1" parent="obZEuTfXzIU9tXFM8pBn-105">
          <mxGeometry x="2" y="-0.8666666666666667" width="75.85" height="26" as="geometry" />
        </mxCell>
        <mxCell id="obZEuTfXzIU9tXFM8pBn-108" value="" style="group" vertex="1" connectable="0" parent="1">
          <mxGeometry x="1000" y="247" width="103" height="27" as="geometry" />
        </mxCell>
        <mxCell id="obZEuTfXzIU9tXFM8pBn-109" value="" style="rounded=1;whiteSpace=wrap;html=1;fillColor=#ffe6cc;strokeColor=#d79b00;" vertex="1" parent="obZEuTfXzIU9tXFM8pBn-108">
          <mxGeometry x="2.8839999999999995" y="4.95" width="79.516" height="17.100000000000005" as="geometry" />
        </mxCell>
        <mxCell id="obZEuTfXzIU9tXFM8pBn-110" value="Backend Subnet" style="text;html=1;align=center;verticalAlign=middle;whiteSpace=wrap;rounded=0;fontSize=9;fontStyle=1" vertex="1" parent="obZEuTfXzIU9tXFM8pBn-108">
          <mxGeometry x="2.06" y="-0.9000000000000001" width="78.12549999999999" height="27" as="geometry" />
        </mxCell>
        <mxCell id="obZEuTfXzIU9tXFM8pBn-111" value="" style="group" vertex="1" connectable="0" parent="1">
          <mxGeometry x="1096" y="248" width="106" height="26" as="geometry" />
        </mxCell>
        <mxCell id="obZEuTfXzIU9tXFM8pBn-112" value="" style="rounded=1;whiteSpace=wrap;html=1;fillColor=#ffe6cc;strokeColor=#d79b00;" vertex="1" parent="obZEuTfXzIU9tXFM8pBn-111">
          <mxGeometry x="2.968" y="4.766666666666667" width="81.83200000000001" height="16.46666666666667" as="geometry" />
        </mxCell>
        <mxCell id="obZEuTfXzIU9tXFM8pBn-113" value="Database Subnet" style="text;html=1;align=center;verticalAlign=middle;whiteSpace=wrap;rounded=0;fontSize=9;fontStyle=1" vertex="1" parent="obZEuTfXzIU9tXFM8pBn-111">
          <mxGeometry x="2.12" y="-0.8666666666666667" width="80.401" height="26" as="geometry" />
        </mxCell>
        <mxCell id="obZEuTfXzIU9tXFM8pBn-115" value="" style="verticalLabelPosition=bottom;html=1;verticalAlign=top;align=center;strokeColor=none;fillColor=#00BEF2;shape=mxgraph.azure.virtual_machine;" vertex="1" parent="1">
          <mxGeometry x="923" y="320" width="50" height="40" as="geometry" />
        </mxCell>
        <mxCell id="obZEuTfXzIU9tXFM8pBn-116" value="" style="verticalLabelPosition=bottom;html=1;verticalAlign=top;align=center;strokeColor=none;fillColor=#00BEF2;shape=mxgraph.azure.virtual_machine;" vertex="1" parent="1">
          <mxGeometry x="1018" y="321" width="50" height="40" as="geometry" />
        </mxCell>
        <mxCell id="obZEuTfXzIU9tXFM8pBn-117" value="" style="verticalLabelPosition=bottom;html=1;verticalAlign=top;align=center;strokeColor=none;fillColor=#00BEF2;shape=mxgraph.azure.virtual_machine;" vertex="1" parent="1">
          <mxGeometry x="1113" y="322" width="50" height="40" as="geometry" />
        </mxCell>
        <mxCell id="obZEuTfXzIU9tXFM8pBn-135" value="" style="shape=image;verticalLabelPosition=bottom;labelBackgroundColor=default;verticalAlign=top;aspect=fixed;imageAspect=0;image=data:image/png,iVBORw0KGgoAAAANSUhEUgAAASwAAACoCAMAAABt9SM9AAABJlBMVEX///9fY2hChfT7vAXqQzU0qFNYXGFSVlxNUlhbYGVVWV+rrK6BhIjq6+vh4uNMUVfFx8gspk6foaQ6gfTNzs/5+fmOsPVtu39flPWytLaQkpX6tgB0vIWYmp16fYEzqkc9ksRsb3TW19i8vb9mam4re/OLjZDpNybqPS78wgB3ofN0d3vpKBDxq6foJgz0PBP0xsTpOjf469VsrEn109HvoJvrbmbnTkLsfnf34+Ltj4npWU/yLgCXiczpLhuAdcpnmPTreHHX4vpyacmyyPfoLSq/0/rtXDDziiL3pxX3uED64aj68uXwdCj4wD345sX339P437LO2/j4yWT5wDb3zHKowff4xVH52JlNifH61IqEtNHv8vx7rUqTyJ/a696v1bdkos8eLYQpAAAKoElEQVR4nO2bf3vbthHHTSfFL4qkIpFOJJVyJVKSE9ld2iZLnG5u0jXZumTJ0rXJ0nXZ9v7fxHAACQISaGmxUnvPc59/LIEgCH55d7gD5b09BEEQBEEQBEEQBEEQBEEQBEEQBEEQBEEQBEEQBEEQBEEQBEEQBEEQBEEQBEEQBEEQBEEQBDmHLMsuewr/F9y7/9vrx2dnx2cPHp6cXvZkrjSnj87OFkfXNUeLswcnaGEtnD45roWqWZzdv+xZXU3uf74qlZLr6N5lT+zqkX298EgFHD+67LldNU4XPrPS/O73lz27q8XpWatU13/zTf/dlsNE3TAf5mERf9TJXjJZmwsqrfb3+4+3GaWYMEE4IURQHu5wGS3CMEx3N9xF+drxwaPF4mxRuyVotb8/O9g4RpcIHhgIG+xsdmNBaLiz0S7Kfcuwjs4WD0/u3rt78uRsYbSSan27YYwOVSKBYRH1SUx2ZVwdHpAtxYrDTslJ2QlNIMjSNL3ARCJ5utNw+rmVKTy4a9pPjha1VpJzx8wCUIhTMZcuMwwo2BhnHz5Hh63FKgJKuLo0YZPqHqNEJBcIoYNEuLfxpHHC4xPnyMM/GK1m350zZBbAFOl4Wn2Pc8YDtqswv6VYUSnjACdCQuQHNtetNKAXEYsExP5+enz9+heap6sJ6LPZ/jamNeFgVra9RpOLPE+X7cRKE6kQLcNuOu2GpbRtUoL77VisR0+/+OOfvr92+/bt0Z+fv1jp/J1Ra/ZD64g9AZYfuY27Sx+2EitNZJgcm4tOSxIIsK0di/X0L6Pbt69pRqOXr9zed/qVWP07bQNGCfhg1Hb4wmwjVizn4C7Aw6SjJrdTsf76fa1UpddLx7qyxrTaFpW5dELa/fAJbWIbsUoeJCu5mD5lp2K9Gl1bZeQY10FtWvt9f/qQyYfKxx8+n41sIdZABMLfZZdivV7XSqr12ur+bRPj/WGrkBGLTn1HnEkXvby3VgdNB/mwV0SrXWXNVDR27IiVhnm+ns+TgJct13XEitKiu3GqQNwtVHpmi+WxqzW1rAXRm5qCFxJPu80UKiEJK213LTiFRsHGlojZPJFLPxdJby9hLIkcsQZCnyHc+mBKA9FSENliFSWTeQVlw/rpLJeTwvQsl3VuthdSKjsmclpFI9YLv1auIz5uxNrve+IWJIHDdp2AOasrIU47RpWJqIsjLpWp75uRqlF0qnXDiJUtzRnU8fseCWjLpRuxqjwMHm1SaU+4pXrCq8AbBWp1l9aaFKkwYr1t0epL+3JmPWxZElnghJQ479lA0xLuX5bXVP2t/CVTpSSRzxBaxbzSKlEJuOzKdaJri1WqnvIMuGFbrSXn801ixQwy1XE+JxA29NOVAzdisUB064lx1unlgTw157VYjhOORiOvVnt3LD/cn/3iFcvyipQRi0S2DAlYVDiNpiHUQUTbVgkf+SCOpjkDVbTtMFVVFtNpMVEWZosF45CgiLLpXN6vHdBF+wpgxJLq01w5Rgofi1axJnbHJsRYhjX62/PXz9+OPFrt/XDwbnaeaa2INTWuAjBwLKlVVVVnS0gzIDTI9SsglTnEoAtEJ9AloJVLQqprixUzI/ReSKoT6imQtk2OWizw1LpPBhPLWsQqrIU1U66gPloR60edW73waAVYVc96tgV33Wu+pkltVVyLBQIQcxZ42USfxZfmjkCHvPmrUco1Yg25WfKiHnEuulksabKWp0rdlSn6xLLnBStHJdZzI9aP5qhXKzt/mD1bPSaNxRp+L66jVTiEm1VpmGjWQBkxAxapWViVNty80AYjmvtkjljym17y0g5Tjt3EdLrRDbsCrmqYc6W7R6xYLqxWcrGsY9ZPxgebnP3VSrVT88ZUPWvbgHCjzJfdgy6llsVqpUo7mb8oA6uQUwRdQJa8aZUzbcSK9DjZgKvAx8ZWrjDhretxJVaP2JdT2mVesaQX2gurybNe1mK9bbmQzaw1aClT9XlBTiCn6CrJGpZqhlJhWxYwG5nYyqAvCmeARiy4DI+HyqiE6DmJbLNmrVGJNXfljHWrR6yQOOmtSR1MxPp7y4VsbtV+eGvtkFriPaYFNlSAWM5DHasZgpB+saystbcqVqCNarlaiMpbaqshKrE6nGwtlj1bI5ZJFZ77r+Ngsq31Nz2wsPHOWjO4Z5IpZxRWc6AklNHJPiUDN4wrqzPMbTeM1b41FzT3lHq0tTqtxBq6mRiIFXnFkn4XWB27a5b1s/86DudY1h6kj6K30jitVzitgzV5sAJwTis2wFcpLNibtVYQO8BnKl0tLS+1kNq37HtUYoXuVousYiADtMXKtFhVNKvp1ec1aZb3Mg6/tMcsvZkUCDfEdlmTzNhGpPZz9FaFtYJJ/wPTSKldkytBm9VQ+q8V/Fa8TgRr29iRcqdKrJXqUa4IYIl2oiI9AMSKkoBYD4TUqcPP3rrZj9mo6b/xHC1AGRI0s4nUyx6mHvbATrcLWiVIkESx+o4hN1eWoSqg6sFGK0lpl1r6psnSCfGwUeqGrakgkAnXSSlUT818tTAwMq/bllW8hJhqTCs0YjXbM/7kyuLZht3lAVNFciBrmiyKi7EqnOtUHGoGqir9LKf1YqC2V5l6FxuNRZWpKnvkRGdTZLU2nKhx4Iysx6DKtWcQQmaRm7uEHnL4RiwptSknU1YpJwNUXUmrRwpiyerUhALlHlqsrMngR+cuiNmBlcH7uxSJfgUlKNOFrpxqHcWUlxI26SzVjkKiDUBbI1t24OWCFFobyhDMSZBOh+uqyRYrYtU4EzUOc7fBQnBsNu/GURR359BDTcDUhh0ZfYKuVDOeS1316xQIBhSykCiHIl+vxLlcvjlsp8VDGhjLarLSa9e+Orz5acPNfxxYPJ41+w7rOWmtSOnUhAGxXvZMlaFx/UrP7P4OEqtV1Hc+14uealzddYjtccTqophSlYJRWm1L6CDQbNHA/o58lkw+GzMJsEcCbYSGkzptGdcdpW03+1lNcfjVJ5/csDj8bNZvsDYdfLsOxrjgFWe1PyVYz068onG1oUXopLGHqX4ZK+0xmTe9B0yPQkRU1YZjQVi1ob6kpPp1wHg9sct6iTATSCqXjBJSv5QLEz0ypxMj9FBPjCf5HhFJtaDmSdWvzNJE1Iv2T41WDoefOQrtbzYsffe9CQP4fG0Zn+ZcHiBDdxFL54KxpOw5RpINlokcQ4YzopOO7mAwqM+bDolnHHNqMYfDjMzNrnQmT66fTxRO5Mhibm+qpsuE0qQjx5Md63nEuRwmGUOpKFvrrn6t2sXa/Nujc37o7D3i764bqfcN26afUp9/eP1oFvne4nlGUY64plWrWP12J9wZbv66q99L7IQvRx6t2sT6+FplRdns6fWIr4q6TF7888aWYs3efXy7IoLzsnIA2Bn9mO9uP4j3h2tyecTqz3yp+65JISnlEIAzyHN5sPGMX5vs/Y3DGzfc1MERq9+f9d/8Ov8+kKuklE5Knb9eyR+n/uvf7z+9afGfWxaPD95s+t3f7hjqpFQnP/4tBsRQMJ1ZElpeSbu6WmSDsUxVg+EV+oEygiAIgiAIgiAIgiAIgiAIgiAIgiAIgiAIgiAIgiAIgiAIgiAIgiAIgiAIgiAIgiAIgiAIgiD/A/8FmsnRqAdxxYQAAAAASUVORK5CYII=;clipPath=inset(20.24% 0% 20.24% 0% round 5%);" vertex="1" parent="1">
          <mxGeometry x="967" y="475" width="141" height="47" as="geometry" />
        </mxCell>
        <mxCell id="obZEuTfXzIU9tXFM8pBn-118" value="" style="rounded=1;whiteSpace=wrap;html=1;strokeColor=#990000;strokeWidth=2;" vertex="1" parent="1">
          <mxGeometry x="874" y="511" width="330" height="192" as="geometry" />
        </mxCell>
        <mxCell id="obZEuTfXzIU9tXFM8pBn-119" value="" style="rounded=1;whiteSpace=wrap;html=1;rotation=90;fillColor=#D5E8D4;strokeColor=#6c8ebf;" vertex="1" parent="1">
          <mxGeometry x="868" y="572" width="150" height="90" as="geometry" />
        </mxCell>
        <mxCell id="obZEuTfXzIU9tXFM8pBn-120" value="" style="rounded=1;whiteSpace=wrap;html=1;rotation=90;fillColor=#D5E8D4;strokeColor=#6c8ebf;" vertex="1" parent="1">
          <mxGeometry x="966" y="573" width="150" height="90" as="geometry" />
        </mxCell>
        <mxCell id="obZEuTfXzIU9tXFM8pBn-121" value="" style="rounded=1;whiteSpace=wrap;html=1;rotation=90;fillColor=#D5E8D4;strokeColor=#6c8ebf;" vertex="1" parent="1">
          <mxGeometry x="1063" y="575" width="150" height="90" as="geometry" />
        </mxCell>
        <mxCell id="obZEuTfXzIU9tXFM8pBn-122" value="8" style="text;align=center;verticalAlign=middle;rounded=0;labelBorderColor=#FF9999;labelBackgroundColor=#F8CECC;glass=0;strokeWidth=4;textShadow=0;fontSize=16;fontStyle=1;whiteSpace=wrap;html=1;fontColor=#333333;" vertex="1" parent="1">
          <mxGeometry x="861" y="520" width="60" height="30" as="geometry" />
        </mxCell>
        <mxCell id="obZEuTfXzIU9tXFM8pBn-123" value="" style="group" vertex="1" connectable="0" parent="1">
          <mxGeometry x="901" y="516" width="100" height="26" as="geometry" />
        </mxCell>
        <mxCell id="obZEuTfXzIU9tXFM8pBn-124" value="" style="rounded=1;whiteSpace=wrap;html=1;fillColor=#ffe6cc;strokeColor=#d79b00;" vertex="1" parent="obZEuTfXzIU9tXFM8pBn-123">
          <mxGeometry x="2.8" y="4.766666666666667" width="77.2" height="16.46666666666667" as="geometry" />
        </mxCell>
        <mxCell id="obZEuTfXzIU9tXFM8pBn-125" value="Frontend Subnet" style="text;html=1;align=center;verticalAlign=middle;whiteSpace=wrap;rounded=0;fontSize=9;fontStyle=1" vertex="1" parent="obZEuTfXzIU9tXFM8pBn-123">
          <mxGeometry x="2" y="-0.8666666666666667" width="75.85" height="26" as="geometry" />
        </mxCell>
        <mxCell id="obZEuTfXzIU9tXFM8pBn-126" value="" style="group" vertex="1" connectable="0" parent="1">
          <mxGeometry x="996" y="516" width="103" height="27" as="geometry" />
        </mxCell>
        <mxCell id="obZEuTfXzIU9tXFM8pBn-127" value="" style="rounded=1;whiteSpace=wrap;html=1;fillColor=#ffe6cc;strokeColor=#d79b00;" vertex="1" parent="obZEuTfXzIU9tXFM8pBn-126">
          <mxGeometry x="2.8839999999999995" y="4.95" width="79.516" height="17.100000000000005" as="geometry" />
        </mxCell>
        <mxCell id="obZEuTfXzIU9tXFM8pBn-128" value="Backend Subnet" style="text;html=1;align=center;verticalAlign=middle;whiteSpace=wrap;rounded=0;fontSize=9;fontStyle=1" vertex="1" parent="obZEuTfXzIU9tXFM8pBn-126">
          <mxGeometry x="2.06" y="-0.9000000000000001" width="78.12549999999999" height="27" as="geometry" />
        </mxCell>
        <mxCell id="obZEuTfXzIU9tXFM8pBn-129" value="" style="group" vertex="1" connectable="0" parent="1">
          <mxGeometry x="1092" y="517" width="106" height="26" as="geometry" />
        </mxCell>
        <mxCell id="obZEuTfXzIU9tXFM8pBn-130" value="" style="rounded=1;whiteSpace=wrap;html=1;fillColor=#ffe6cc;strokeColor=#d79b00;" vertex="1" parent="obZEuTfXzIU9tXFM8pBn-129">
          <mxGeometry x="2.968" y="4.766666666666667" width="81.83200000000001" height="16.46666666666667" as="geometry" />
        </mxCell>
        <mxCell id="obZEuTfXzIU9tXFM8pBn-131" value="Database Subnet" style="text;html=1;align=center;verticalAlign=middle;whiteSpace=wrap;rounded=0;fontSize=9;fontStyle=1" vertex="1" parent="obZEuTfXzIU9tXFM8pBn-129">
          <mxGeometry x="2.12" y="-0.8666666666666667" width="80.401" height="26" as="geometry" />
        </mxCell>
        <mxCell id="obZEuTfXzIU9tXFM8pBn-132" value="" style="verticalLabelPosition=bottom;html=1;verticalAlign=top;align=center;strokeColor=none;fillColor=#00BEF2;shape=mxgraph.azure.virtual_machine;" vertex="1" parent="1">
          <mxGeometry x="919" y="589" width="50" height="40" as="geometry" />
        </mxCell>
        <mxCell id="obZEuTfXzIU9tXFM8pBn-133" value="" style="verticalLabelPosition=bottom;html=1;verticalAlign=top;align=center;strokeColor=none;fillColor=#00BEF2;shape=mxgraph.azure.virtual_machine;" vertex="1" parent="1">
          <mxGeometry x="1014" y="590" width="50" height="40" as="geometry" />
        </mxCell>
        <mxCell id="obZEuTfXzIU9tXFM8pBn-134" value="" style="verticalLabelPosition=bottom;html=1;verticalAlign=top;align=center;strokeColor=none;fillColor=#00BEF2;shape=mxgraph.azure.virtual_machine;" vertex="1" parent="1">
          <mxGeometry x="1109" y="591" width="50" height="40" as="geometry" />
        </mxCell>
        <mxCell id="obZEuTfXzIU9tXFM8pBn-140" style="edgeStyle=orthogonalEdgeStyle;rounded=0;orthogonalLoop=1;jettySize=auto;html=1;entryX=0;entryY=0.5;entryDx=0;entryDy=0;dashed=1;strokeWidth=2;strokeColor=#A9C4EB;" edge="1" parent="1" source="obZEuTfXzIU9tXFM8pBn-22" target="obZEuTfXzIU9tXFM8pBn-49">
          <mxGeometry relative="1" as="geometry" />
        </mxCell>
        <mxCell id="obZEuTfXzIU9tXFM8pBn-145" style="edgeStyle=orthogonalEdgeStyle;rounded=0;orthogonalLoop=1;jettySize=auto;html=1;entryX=-0.003;entryY=0.563;entryDx=0;entryDy=0;entryPerimeter=0;exitX=0.5;exitY=1;exitDx=0;exitDy=0;strokeWidth=2;dashed=1;strokeColor=#A9C4EB;" edge="1" parent="1" source="obZEuTfXzIU9tXFM8pBn-83" target="obZEuTfXzIU9tXFM8pBn-118">
          <mxGeometry relative="1" as="geometry" />
        </mxCell>
        <mxCell id="obZEuTfXzIU9tXFM8pBn-147" style="edgeStyle=orthogonalEdgeStyle;rounded=0;orthogonalLoop=1;jettySize=auto;html=1;entryX=0;entryY=0.5;entryDx=0;entryDy=0;strokeWidth=2;strokeColor=#A9C4EB;dashed=1;" edge="1" parent="1" source="obZEuTfXzIU9tXFM8pBn-58" target="obZEuTfXzIU9tXFM8pBn-67">
          <mxGeometry relative="1" as="geometry" />
        </mxCell>
        <mxCell id="obZEuTfXzIU9tXFM8pBn-151" style="edgeStyle=orthogonalEdgeStyle;rounded=0;orthogonalLoop=1;jettySize=auto;html=1;entryX=0.5;entryY=0;entryDx=0;entryDy=0;dashed=1;strokeWidth=2;strokeColor=#A9C4EB;" edge="1" parent="1" source="obZEuTfXzIU9tXFM8pBn-67" target="obZEuTfXzIU9tXFM8pBn-80">
          <mxGeometry relative="1" as="geometry">
            <Array as="points">
              <mxPoint x="579" y="298" />
              <mxPoint x="579" y="298" />
            </Array>
          </mxGeometry>
        </mxCell>
        <mxCell id="obZEuTfXzIU9tXFM8pBn-153" style="edgeStyle=orthogonalEdgeStyle;rounded=0;orthogonalLoop=1;jettySize=auto;html=1;entryX=0.5;entryY=0;entryDx=0;entryDy=0;strokeColor=#A9C4EB;strokeWidth=2;dashed=1;" edge="1" parent="1" source="obZEuTfXzIU9tXFM8pBn-67" target="obZEuTfXzIU9tXFM8pBn-76">
          <mxGeometry relative="1" as="geometry" />
        </mxCell>
        <mxCell id="obZEuTfXzIU9tXFM8pBn-154" style="edgeStyle=orthogonalEdgeStyle;rounded=0;orthogonalLoop=1;jettySize=auto;html=1;entryX=0.5;entryY=0;entryDx=0;entryDy=0;dashed=1;strokeWidth=2;strokeColor=#A9C4EB;" edge="1" parent="1" source="obZEuTfXzIU9tXFM8pBn-67" target="obZEuTfXzIU9tXFM8pBn-83">
          <mxGeometry relative="1" as="geometry" />
        </mxCell>
        <mxCell id="obZEuTfXzIU9tXFM8pBn-155" value="" style="shape=card;whiteSpace=wrap;html=1;" vertex="1" parent="1">
          <mxGeometry x="-478" y="393" width="80" height="100" as="geometry" />
        </mxCell>
      </root>
    </mxGraphModel>
  </diagram>
</mxfile>
